G04*
G04 #@! TF.GenerationSoftware,Altium Limited,Altium Designer,26.3.0 (6)*
G04*
G04 Layer_Physical_Order=2*
G04 Layer_Color=16711680*
%FSLAX44Y44*%
%MOMM*%
G71*
G04*
G04 #@! TF.SameCoordinates,0E51D8CF-22DB-4B3F-A48B-E46F4DA98146*
G04*
G04*
G04 #@! TF.FilePolarity,Positive*
G04*
G01*
G75*
%ADD14C,0.2540*%
%ADD60C,1.3000*%
%ADD62R,1.3000X1.3000*%
%ADD65C,0.5000*%
%ADD66C,0.6500*%
%ADD67O,1.0000X2.1000*%
G04:AMPARAMS|DCode=68|XSize=1.8mm|YSize=1mm|CornerRadius=0.25mm|HoleSize=0mm|Usage=FLASHONLY|Rotation=90.000|XOffset=0mm|YOffset=0mm|HoleType=Round|Shape=RoundedRectangle|*
%AMROUNDEDRECTD68*
21,1,1.8000,0.5000,0,0,90.0*
21,1,1.3000,1.0000,0,0,90.0*
1,1,0.5000,0.2500,0.6500*
1,1,0.5000,0.2500,-0.6500*
1,1,0.5000,-0.2500,-0.6500*
1,1,0.5000,-0.2500,0.6500*
%
%ADD68ROUNDEDRECTD68*%
%ADD69C,1.6000*%
%ADD70C,2.5000*%
%ADD71C,0.7000*%
G36*
X647961Y873092D02*
X645421Y872587D01*
X645394Y872652D01*
X644052Y873994D01*
X642299Y874720D01*
X640401D01*
X638648Y873994D01*
X637306Y872652D01*
X637260Y872540D01*
X561620D01*
X561574Y872652D01*
X560232Y873994D01*
X558479Y874720D01*
X556581D01*
X554828Y873994D01*
X553486Y872652D01*
X552760Y870899D01*
Y869596D01*
X552674Y869478D01*
X551249Y868375D01*
X550414Y868028D01*
X549589Y868370D01*
X547691D01*
X547067Y868112D01*
X545809Y867752D01*
X544070Y869216D01*
X542728Y870558D01*
X540975Y871284D01*
X540517D01*
X539008Y871449D01*
X538093Y873625D01*
X537444Y875192D01*
X536102Y876534D01*
X534349Y877260D01*
X532451D01*
X530698Y876534D01*
X529356Y875192D01*
X529310Y875080D01*
X462234D01*
X460588Y877620D01*
X460700Y877891D01*
Y879789D01*
X459974Y881542D01*
X458632Y882884D01*
X456879Y883610D01*
X454981D01*
X453921Y883171D01*
X453484Y883463D01*
X452493Y883660D01*
X302689D01*
X301698Y883463D01*
X300858Y882901D01*
X299387Y881430D01*
X218720D01*
X218674Y881542D01*
X217332Y882884D01*
X215579Y883610D01*
X213681D01*
X211928Y882884D01*
X210586Y881542D01*
X209860Y879789D01*
Y877891D01*
X210586Y876138D01*
X211928Y874796D01*
X213681Y874070D01*
X215579D01*
X217332Y874796D01*
X218674Y876138D01*
X218720Y876250D01*
X300459D01*
X301450Y876447D01*
X302291Y877009D01*
X303762Y878480D01*
X379405D01*
X380244Y875940D01*
X379496Y875192D01*
X378770Y873439D01*
Y871541D01*
X379496Y869788D01*
X380838Y868446D01*
X382591Y867720D01*
X384489D01*
X385313Y868062D01*
X385578Y867987D01*
X387584Y866598D01*
X387660Y866494D01*
Y865501D01*
X388386Y863748D01*
X389728Y862406D01*
X391481Y861680D01*
X393379D01*
X393383Y861682D01*
X393909Y861486D01*
X395730Y859905D01*
Y858911D01*
X395886Y858533D01*
X394302Y855993D01*
X355983D01*
X355762Y856214D01*
X354009Y856940D01*
X352111D01*
X350358Y856214D01*
X349016Y854872D01*
X348290Y853119D01*
Y851221D01*
X349016Y849468D01*
X350358Y848126D01*
X352111Y847400D01*
X354009D01*
X355762Y848126D01*
X355941Y848306D01*
X487393D01*
X487593Y848105D01*
X489346Y847379D01*
X491243D01*
X492997Y848105D01*
X493207Y848316D01*
X616868D01*
X617058Y848126D01*
X618811Y847400D01*
X620709D01*
X622462Y848126D01*
X623804Y849468D01*
X624530Y851221D01*
Y853119D01*
X623804Y854872D01*
X622462Y856214D01*
X620709Y856940D01*
X618811D01*
X617058Y856214D01*
X616848Y856003D01*
X531068D01*
X529560Y858543D01*
X529770Y859051D01*
Y860949D01*
X529616Y861320D01*
X531204Y863860D01*
X535962D01*
X535982Y863812D01*
X537324Y862470D01*
X539077Y861744D01*
X540975D01*
X541599Y862002D01*
X542857Y862362D01*
X544596Y860898D01*
X545938Y859556D01*
X547691Y858830D01*
X549589D01*
X551342Y859556D01*
X552684Y860898D01*
X552730Y861010D01*
X624560D01*
X624606Y860898D01*
X625948Y859556D01*
X627701Y858830D01*
X629599D01*
X631352Y859556D01*
X632694Y860898D01*
X633420Y862651D01*
Y864549D01*
X633308Y864820D01*
X634811Y867140D01*
X637318Y867236D01*
X638648Y865906D01*
X640401Y865180D01*
X642299D01*
X644052Y865906D01*
X645394Y867248D01*
X645421Y867314D01*
X647961Y866808D01*
Y832930D01*
X645421Y831970D01*
X644758Y832634D01*
X643004Y833360D01*
X641107D01*
X639354Y832634D01*
X638012Y831292D01*
X637738Y830630D01*
X438301D01*
X426359Y842571D01*
X425519Y843133D01*
X424528Y843330D01*
X369850D01*
X369804Y843442D01*
X368462Y844784D01*
X366709Y845510D01*
X364811D01*
X363058Y844784D01*
X361716Y843442D01*
X360990Y841689D01*
Y839791D01*
X361716Y838038D01*
X363058Y836696D01*
X364811Y835970D01*
X366709D01*
X368462Y836696D01*
X369804Y838038D01*
X369850Y838150D01*
X423455D01*
X435397Y826209D01*
X436237Y825647D01*
X437228Y825450D01*
X623504D01*
X624655Y822910D01*
X623629Y821740D01*
X346990D01*
X346944Y821852D01*
X345602Y823194D01*
X343849Y823920D01*
X341951D01*
X340198Y823194D01*
X338856Y821852D01*
X338130Y820099D01*
Y818201D01*
X338856Y816448D01*
X340198Y815106D01*
X341951Y814380D01*
X343849D01*
X345602Y815106D01*
X346944Y816448D01*
X346990Y816560D01*
X624560D01*
X624606Y816448D01*
X625948Y815106D01*
X627701Y814380D01*
X629599D01*
X631352Y815106D01*
X632694Y816448D01*
X633420Y818201D01*
Y820099D01*
X632694Y821852D01*
X631636Y822910D01*
X631846Y824243D01*
X632414Y825450D01*
X638449D01*
X639354Y824546D01*
X641107Y823820D01*
X643004D01*
X644758Y824546D01*
X645421Y825209D01*
X647961Y824250D01*
Y502039D01*
X2039D01*
Y535077D01*
X2097Y535121D01*
X4579Y535947D01*
X6545Y533981D01*
X9685Y532168D01*
X13187Y531230D01*
X16813D01*
X20315Y532168D01*
X23455Y533981D01*
X26019Y536545D01*
X27832Y539685D01*
X28770Y543187D01*
Y546813D01*
X27832Y550315D01*
X26019Y553455D01*
X23455Y556019D01*
X20315Y557832D01*
X16813Y558770D01*
X13187D01*
X9685Y557832D01*
X6545Y556019D01*
X4579Y554053D01*
X2097Y554879D01*
X2039Y554923D01*
Y585077D01*
X2097Y585121D01*
X4579Y585947D01*
X6545Y583981D01*
X9685Y582168D01*
X13187Y581230D01*
X14365D01*
Y595000D01*
Y608770D01*
X13187D01*
X9685Y607832D01*
X6545Y606019D01*
X4579Y604053D01*
X2097Y604879D01*
X2039Y604923D01*
Y1497961D01*
X647961D01*
Y873092D01*
D02*
G37*
%LPC*%
G36*
X595309Y1456380D02*
X593411D01*
X591658Y1455654D01*
X591458Y1455454D01*
X496932D01*
X496732Y1455654D01*
X494979Y1456380D01*
X493081D01*
X491328Y1455654D01*
X489986Y1454312D01*
X489260Y1452559D01*
Y1450661D01*
X489986Y1448908D01*
X491328Y1447566D01*
X493081Y1446840D01*
X494979D01*
X496732Y1447566D01*
X496932Y1447766D01*
X591458D01*
X591658Y1447566D01*
X593411Y1446840D01*
X595309D01*
X597062Y1447566D01*
X598404Y1448908D01*
X599130Y1450661D01*
Y1452559D01*
X598404Y1454312D01*
X597062Y1455654D01*
X595309Y1456380D01*
D02*
G37*
G36*
X428939Y1436060D02*
X427041D01*
X425288Y1435334D01*
X423946Y1433992D01*
X423900Y1433880D01*
X346990D01*
X346944Y1433992D01*
X345602Y1435334D01*
X343849Y1436060D01*
X341951D01*
X340198Y1435334D01*
X338856Y1433992D01*
X338130Y1432239D01*
Y1430341D01*
X338856Y1428588D01*
X340198Y1427246D01*
X341951Y1426520D01*
X343849D01*
X345602Y1427246D01*
X346944Y1428588D01*
X346990Y1428700D01*
X423900D01*
X423946Y1428588D01*
X425288Y1427246D01*
X427041Y1426520D01*
X428939D01*
X430692Y1427246D01*
X432034Y1428588D01*
X432760Y1430341D01*
Y1432239D01*
X432034Y1433992D01*
X430692Y1435334D01*
X428939Y1436060D01*
D02*
G37*
G36*
X404809Y1419550D02*
X402911D01*
X401158Y1418824D01*
X399816Y1417482D01*
X399770Y1417370D01*
X373660D01*
X373614Y1417482D01*
X372272Y1418824D01*
X370519Y1419550D01*
X368621D01*
X366868Y1418824D01*
X365526Y1417482D01*
X364800Y1415729D01*
Y1413831D01*
X365526Y1412078D01*
X366868Y1410736D01*
X368621Y1410010D01*
X370519D01*
X372272Y1410736D01*
X373614Y1412078D01*
X373660Y1412190D01*
X385852D01*
X386644Y1410731D01*
X387029Y1409650D01*
X386390Y1408109D01*
Y1406211D01*
X387116Y1404458D01*
X388458Y1403116D01*
X390211Y1402390D01*
X392109D01*
X393862Y1403116D01*
X393894Y1403148D01*
X394559Y1403266D01*
X394563Y1403265D01*
X395116Y1401868D01*
X395358Y1400303D01*
X394362Y1398578D01*
X393730Y1396220D01*
Y1393780D01*
X394362Y1391422D01*
X395582Y1389308D01*
X397308Y1387582D01*
X399422Y1386362D01*
X401780Y1385730D01*
X404220D01*
X406578Y1386362D01*
X408692Y1387582D01*
X410418Y1389308D01*
X411638Y1391422D01*
X412270Y1393780D01*
Y1396220D01*
X411638Y1398578D01*
X410418Y1400692D01*
X409080Y1402030D01*
X409423Y1403623D01*
X409998Y1404570D01*
X421402D01*
X421977Y1403623D01*
X422321Y1402030D01*
X420982Y1400692D01*
X419762Y1398578D01*
X419130Y1396220D01*
Y1393780D01*
X419762Y1391422D01*
X420982Y1389308D01*
X422708Y1387582D01*
X424822Y1386362D01*
X427180Y1385730D01*
X429620D01*
X431978Y1386362D01*
X434092Y1387582D01*
X435818Y1389308D01*
X437038Y1391422D01*
X437670Y1393780D01*
Y1396220D01*
X437038Y1398578D01*
X435818Y1400692D01*
X434479Y1402030D01*
X434823Y1403623D01*
X435398Y1404570D01*
X440567D01*
X445673Y1399464D01*
X445162Y1398578D01*
X444530Y1396220D01*
Y1393780D01*
X445162Y1391422D01*
X446382Y1389308D01*
X448108Y1387582D01*
X450222Y1386362D01*
X452580Y1385730D01*
X455020D01*
X457378Y1386362D01*
X459492Y1387582D01*
X461218Y1389308D01*
X462438Y1391422D01*
X463070Y1393780D01*
Y1396220D01*
X462438Y1398578D01*
X461218Y1400692D01*
X459492Y1402418D01*
X457378Y1403638D01*
X455020Y1404270D01*
X452580D01*
X450222Y1403638D01*
X449336Y1403127D01*
X443471Y1408991D01*
X442631Y1409553D01*
X441640Y1409750D01*
X409168D01*
X408376Y1411209D01*
X407991Y1412290D01*
X408630Y1413831D01*
Y1415729D01*
X407904Y1417482D01*
X406562Y1418824D01*
X404809Y1419550D01*
D02*
G37*
G36*
X505820Y1404270D02*
X505235D01*
Y1395635D01*
X513870D01*
Y1396220D01*
X513238Y1398578D01*
X512018Y1400692D01*
X510292Y1402418D01*
X508178Y1403638D01*
X505820Y1404270D01*
D02*
G37*
G36*
X503965D02*
X503380D01*
X501022Y1403638D01*
X498908Y1402418D01*
X497182Y1400692D01*
X495962Y1398578D01*
X495330Y1396220D01*
Y1395635D01*
X503965D01*
Y1404270D01*
D02*
G37*
G36*
X531220D02*
X528780D01*
X526422Y1403638D01*
X524308Y1402418D01*
X522582Y1400692D01*
X521362Y1398578D01*
X520730Y1396220D01*
Y1393780D01*
X521362Y1391422D01*
X522582Y1389308D01*
X524308Y1387582D01*
X526422Y1386362D01*
X528780Y1385730D01*
X531220D01*
X533578Y1386362D01*
X535692Y1387582D01*
X537418Y1389308D01*
X538638Y1391422D01*
X539270Y1393780D01*
Y1396220D01*
X538638Y1398578D01*
X537418Y1400692D01*
X535692Y1402418D01*
X533578Y1403638D01*
X531220Y1404270D01*
D02*
G37*
G36*
X513870Y1394365D02*
X505235D01*
Y1385730D01*
X505820D01*
X508178Y1386362D01*
X510292Y1387582D01*
X512018Y1389308D01*
X513238Y1391422D01*
X513870Y1393780D01*
Y1394365D01*
D02*
G37*
G36*
X503965D02*
X495330D01*
Y1393780D01*
X495962Y1391422D01*
X497182Y1389308D01*
X498908Y1387582D01*
X501022Y1386362D01*
X503380Y1385730D01*
X503965D01*
Y1394365D01*
D02*
G37*
G36*
X480420Y1404270D02*
X477980D01*
X475622Y1403638D01*
X473508Y1402418D01*
X471782Y1400692D01*
X470562Y1398578D01*
X469930Y1396220D01*
Y1393780D01*
X470562Y1391422D01*
X471073Y1390536D01*
X459807Y1379270D01*
X388900D01*
X388854Y1379382D01*
X387512Y1380724D01*
X385759Y1381450D01*
X383861D01*
X382108Y1380724D01*
X380766Y1379382D01*
X380040Y1377629D01*
Y1375731D01*
X380766Y1373978D01*
X382108Y1372636D01*
X383861Y1371910D01*
X385759D01*
X387512Y1372636D01*
X388854Y1373978D01*
X388900Y1374090D01*
X460880D01*
X461871Y1374287D01*
X462711Y1374849D01*
X474736Y1386873D01*
X475622Y1386362D01*
X477980Y1385730D01*
X480420D01*
X482778Y1386362D01*
X484892Y1387582D01*
X486618Y1389308D01*
X487838Y1391422D01*
X488470Y1393780D01*
Y1396220D01*
X487838Y1398578D01*
X486618Y1400692D01*
X484892Y1402418D01*
X482778Y1403638D01*
X480420Y1404270D01*
D02*
G37*
G36*
X547988Y1352146D02*
X546091D01*
X544337Y1351420D01*
X544137Y1351220D01*
X377096D01*
X375838Y1350970D01*
X374971D01*
X373218Y1350244D01*
X371876Y1348902D01*
X371150Y1347149D01*
Y1345251D01*
X371876Y1343498D01*
X373218Y1342156D01*
X374971Y1341430D01*
X376869D01*
X378622Y1342156D01*
X379964Y1343498D01*
X379978Y1343533D01*
X519398D01*
X519833Y1342701D01*
X520177Y1340993D01*
X519196Y1340012D01*
X518470Y1338259D01*
Y1336361D01*
X519196Y1334608D01*
X520538Y1333266D01*
X522291Y1332540D01*
X524189D01*
X525942Y1333266D01*
X526142Y1333466D01*
X591458D01*
X591658Y1333266D01*
X593411Y1332540D01*
X595309D01*
X597062Y1333266D01*
X598404Y1334608D01*
X599130Y1336361D01*
Y1338259D01*
X598404Y1340012D01*
X597062Y1341354D01*
X595309Y1342080D01*
X593411D01*
X591658Y1341354D01*
X591458Y1341154D01*
X550881D01*
X550446Y1341986D01*
X550103Y1343694D01*
X551083Y1344675D01*
X551809Y1346428D01*
Y1348325D01*
X551083Y1350078D01*
X549741Y1351420D01*
X547988Y1352146D01*
D02*
G37*
G36*
X634679Y1306520D02*
X632781D01*
X631028Y1305794D01*
X629686Y1304452D01*
X629640Y1304340D01*
X448590D01*
X448544Y1304452D01*
X447202Y1305794D01*
X445449Y1306520D01*
X443551D01*
X441798Y1305794D01*
X440456Y1304452D01*
X439730Y1302699D01*
Y1300801D01*
X440456Y1299048D01*
X441798Y1297706D01*
X443551Y1296980D01*
X445449D01*
X447202Y1297706D01*
X448544Y1299048D01*
X448590Y1299160D01*
X629640D01*
X629686Y1299048D01*
X631028Y1297706D01*
X632781Y1296980D01*
X634679D01*
X636432Y1297706D01*
X637774Y1299048D01*
X638500Y1300801D01*
Y1302699D01*
X637774Y1304452D01*
X636432Y1305794D01*
X634679Y1306520D01*
D02*
G37*
G36*
X556813Y1288770D02*
X555635D01*
Y1275635D01*
X568770D01*
Y1276813D01*
X567832Y1280315D01*
X566019Y1283455D01*
X563455Y1286019D01*
X560315Y1287832D01*
X556813Y1288770D01*
D02*
G37*
G36*
X554365D02*
X553187D01*
X549685Y1287832D01*
X546545Y1286019D01*
X543981Y1283455D01*
X542168Y1280315D01*
X541230Y1276813D01*
Y1275635D01*
X554365D01*
Y1288770D01*
D02*
G37*
G36*
X568770Y1274365D02*
X555635D01*
Y1261230D01*
X556813D01*
X560315Y1262168D01*
X563455Y1263981D01*
X566019Y1266545D01*
X567832Y1269685D01*
X568770Y1273187D01*
Y1274365D01*
D02*
G37*
G36*
X554365D02*
X541230D01*
Y1273187D01*
X542168Y1269685D01*
X543981Y1266545D01*
X546545Y1263981D01*
X549685Y1262168D01*
X553187Y1261230D01*
X554365D01*
Y1274365D01*
D02*
G37*
G36*
X431813Y1288770D02*
X428187D01*
X424685Y1287832D01*
X421545Y1286019D01*
X418981Y1283455D01*
X417168Y1280315D01*
X416230Y1276813D01*
Y1273187D01*
X417168Y1269685D01*
X418981Y1266545D01*
X421545Y1263981D01*
X424685Y1262168D01*
X428187Y1261230D01*
X431813D01*
X435315Y1262168D01*
X438455Y1263981D01*
X441019Y1266545D01*
X442832Y1269685D01*
X443770Y1273187D01*
Y1276813D01*
X442832Y1280315D01*
X441019Y1283455D01*
X438455Y1286019D01*
X435315Y1287832D01*
X431813Y1288770D01*
D02*
G37*
G36*
X556813Y1238770D02*
X553187D01*
X549685Y1237832D01*
X546545Y1236019D01*
X543981Y1233455D01*
X542168Y1230315D01*
X541230Y1226813D01*
Y1223187D01*
X542168Y1219685D01*
X543981Y1216545D01*
X546545Y1213981D01*
X548446Y1212884D01*
X547765Y1210344D01*
X450092D01*
X442070Y1218366D01*
X442832Y1219685D01*
X443770Y1223187D01*
Y1226813D01*
X442832Y1230315D01*
X441019Y1233455D01*
X438455Y1236019D01*
X435315Y1237832D01*
X431813Y1238770D01*
X428187D01*
X424685Y1237832D01*
X421545Y1236019D01*
X418981Y1233455D01*
X417168Y1230315D01*
X416230Y1226813D01*
Y1223187D01*
X417168Y1219685D01*
X418981Y1216545D01*
X421545Y1213981D01*
X424685Y1212168D01*
X428187Y1211230D01*
X431813D01*
X435315Y1212168D01*
X436634Y1212930D01*
X445782Y1203782D01*
X445782Y1203782D01*
X447029Y1202949D01*
X448500Y1202656D01*
X448500Y1202656D01*
X611778D01*
X611978Y1202456D01*
X613731Y1201730D01*
X615629D01*
X617382Y1202456D01*
X618724Y1203798D01*
X619450Y1205551D01*
Y1207449D01*
X618724Y1209202D01*
X617382Y1210544D01*
X615629Y1211270D01*
X613731D01*
X611978Y1210544D01*
X611778Y1210344D01*
X562235D01*
X561554Y1212884D01*
X563455Y1213981D01*
X566019Y1216545D01*
X567832Y1219685D01*
X568770Y1223187D01*
Y1226813D01*
X567832Y1230315D01*
X566019Y1233455D01*
X563455Y1236019D01*
X560315Y1237832D01*
X556813Y1238770D01*
D02*
G37*
G36*
X405444Y1192660D02*
X403546D01*
X401793Y1191934D01*
X401593Y1191734D01*
X378042D01*
X376869Y1192220D01*
X374971D01*
X373218Y1191494D01*
X371876Y1190152D01*
X371564Y1189400D01*
X371539Y1189361D01*
X371530Y1189315D01*
X371150Y1188399D01*
Y1186501D01*
X371876Y1184748D01*
X373218Y1183406D01*
X374971Y1182680D01*
X376869D01*
X378622Y1183406D01*
X379262Y1184046D01*
X401593D01*
X401793Y1183846D01*
X403546Y1183120D01*
X405444D01*
X407197Y1183846D01*
X408539Y1185188D01*
X409265Y1186941D01*
Y1188839D01*
X408539Y1190592D01*
X407197Y1191934D01*
X405444Y1192660D01*
D02*
G37*
G36*
X431813Y1163770D02*
X428187D01*
X424685Y1162832D01*
X421545Y1161019D01*
X418981Y1158455D01*
X417168Y1155315D01*
X416230Y1151813D01*
Y1148187D01*
X417168Y1144685D01*
X418981Y1141545D01*
X421545Y1138981D01*
X424685Y1137168D01*
X428187Y1136230D01*
X431813D01*
X435315Y1137168D01*
X438455Y1138981D01*
X441019Y1141545D01*
X442832Y1144685D01*
X443226Y1146156D01*
X463808D01*
X464658Y1145306D01*
X466411Y1144580D01*
X468309D01*
X470062Y1145306D01*
X471404Y1146648D01*
X472130Y1148401D01*
Y1150299D01*
X471404Y1152052D01*
X470062Y1153394D01*
X468309Y1154120D01*
X466411D01*
X465745Y1153844D01*
X443226D01*
X442832Y1155315D01*
X441019Y1158455D01*
X438455Y1161019D01*
X435315Y1162832D01*
X431813Y1163770D01*
D02*
G37*
G36*
X556813D02*
X553187D01*
X549685Y1162832D01*
X546545Y1161019D01*
X543981Y1158455D01*
X542168Y1155315D01*
X541230Y1151813D01*
Y1148187D01*
X542168Y1144685D01*
X543981Y1141545D01*
X546545Y1138981D01*
X549685Y1137168D01*
X553187Y1136230D01*
X556813D01*
X560315Y1137168D01*
X563455Y1138981D01*
X566019Y1141545D01*
X567832Y1144685D01*
X568770Y1148187D01*
Y1151813D01*
X567832Y1155315D01*
X566019Y1158455D01*
X563455Y1161019D01*
X560315Y1162832D01*
X556813Y1163770D01*
D02*
G37*
G36*
Y1113770D02*
X555635D01*
Y1100635D01*
X568770D01*
Y1101813D01*
X567832Y1105315D01*
X566019Y1108455D01*
X563455Y1111019D01*
X560315Y1112832D01*
X556813Y1113770D01*
D02*
G37*
G36*
X554365D02*
X553187D01*
X549685Y1112832D01*
X546545Y1111019D01*
X543981Y1108455D01*
X542168Y1105315D01*
X541230Y1101813D01*
Y1100635D01*
X554365D01*
Y1113770D01*
D02*
G37*
G36*
X568770Y1099365D02*
X555635D01*
Y1086230D01*
X556813D01*
X560315Y1087168D01*
X563455Y1088981D01*
X566019Y1091545D01*
X567832Y1094685D01*
X568770Y1098187D01*
Y1099365D01*
D02*
G37*
G36*
X554365D02*
X541230D01*
Y1098187D01*
X542168Y1094685D01*
X543981Y1091545D01*
X546545Y1088981D01*
X549685Y1087168D01*
X553187Y1086230D01*
X554365D01*
Y1099365D01*
D02*
G37*
G36*
X431813Y1113770D02*
X428187D01*
X424685Y1112832D01*
X421545Y1111019D01*
X418981Y1108455D01*
X417168Y1105315D01*
X416230Y1101813D01*
Y1098187D01*
X417168Y1094685D01*
X418981Y1091545D01*
X421545Y1088981D01*
X424685Y1087168D01*
X428187Y1086230D01*
X431813D01*
X435315Y1087168D01*
X438455Y1088981D01*
X441019Y1091545D01*
X442832Y1094685D01*
X443770Y1098187D01*
Y1101813D01*
X442832Y1105315D01*
X441019Y1108455D01*
X438455Y1111019D01*
X435315Y1112832D01*
X431813Y1113770D01*
D02*
G37*
G36*
X572449Y1085540D02*
X570551D01*
X568798Y1084814D01*
X567456Y1083472D01*
X567410Y1083360D01*
X510820D01*
X510774Y1083472D01*
X509432Y1084814D01*
X507679Y1085540D01*
X505781D01*
X504028Y1084814D01*
X502686Y1083472D01*
X501960Y1081719D01*
Y1079821D01*
X502686Y1078068D01*
X504028Y1076726D01*
X505781Y1076000D01*
X507679D01*
X509432Y1076726D01*
X510774Y1078068D01*
X510820Y1078180D01*
X567410D01*
X567456Y1078068D01*
X568798Y1076726D01*
X570551Y1076000D01*
X572449D01*
X574202Y1076726D01*
X575544Y1078068D01*
X576270Y1079821D01*
Y1081719D01*
X575544Y1083472D01*
X574202Y1084814D01*
X572449Y1085540D01*
D02*
G37*
G36*
X582907Y1057912D02*
X581010D01*
X579257Y1057186D01*
X577915Y1055844D01*
X577868Y1055732D01*
X213394D01*
X212252Y1056874D01*
X210499Y1057600D01*
X208601D01*
X206848Y1056874D01*
X205506Y1055532D01*
X204780Y1053779D01*
Y1051881D01*
X205506Y1050128D01*
X206848Y1048786D01*
X208601Y1048060D01*
X210499D01*
X212252Y1048786D01*
X213594Y1050128D01*
X213769Y1050552D01*
X577868D01*
X577915Y1050440D01*
X579257Y1049098D01*
X581010Y1048372D01*
X582907D01*
X584660Y1049098D01*
X586002Y1050440D01*
X586729Y1052193D01*
Y1054091D01*
X586002Y1055844D01*
X584660Y1057186D01*
X582907Y1057912D01*
D02*
G37*
G36*
X604199Y1038550D02*
X602301D01*
X600548Y1037824D01*
X600348Y1037624D01*
X573132D01*
X572932Y1037824D01*
X571179Y1038550D01*
X569281D01*
X567528Y1037824D01*
X567328Y1037624D01*
X482962D01*
X482762Y1037824D01*
X481009Y1038550D01*
X479111D01*
X477358Y1037824D01*
X477158Y1037624D01*
X401682D01*
X401482Y1037824D01*
X399729Y1038550D01*
X397831D01*
X396078Y1037824D01*
X395878Y1037624D01*
X378822D01*
X378622Y1037824D01*
X376869Y1038550D01*
X374971D01*
X373218Y1037824D01*
X371876Y1036482D01*
X371150Y1034729D01*
Y1032831D01*
X371876Y1031078D01*
X373218Y1029736D01*
X374971Y1029010D01*
X376869D01*
X378622Y1029736D01*
X378822Y1029936D01*
X395878D01*
X396078Y1029736D01*
X397831Y1029010D01*
X399729D01*
X401482Y1029736D01*
X401682Y1029936D01*
X477158D01*
X477358Y1029736D01*
X479111Y1029010D01*
X481009D01*
X482762Y1029736D01*
X482962Y1029936D01*
X567328D01*
X567528Y1029736D01*
X569281Y1029010D01*
X571179D01*
X572932Y1029736D01*
X573132Y1029936D01*
X600348D01*
X600548Y1029736D01*
X602301Y1029010D01*
X604199D01*
X605952Y1029736D01*
X607294Y1031078D01*
X608020Y1032831D01*
Y1034729D01*
X607294Y1036482D01*
X605952Y1037824D01*
X604199Y1038550D01*
D02*
G37*
G36*
X385759Y1004260D02*
X383861D01*
X382108Y1003534D01*
X380766Y1002192D01*
X380040Y1000439D01*
Y998541D01*
X380766Y996788D01*
X382108Y995446D01*
X382220Y995400D01*
Y985780D01*
X382041Y984878D01*
Y974257D01*
X380766Y972982D01*
X380040Y971229D01*
Y969331D01*
X380766Y967578D01*
X381824Y966520D01*
X381614Y965187D01*
X381046Y963980D01*
X376200D01*
X376154Y964092D01*
X374812Y965434D01*
X373059Y966160D01*
X371161D01*
X369408Y965434D01*
X368066Y964092D01*
X367340Y962339D01*
Y960441D01*
X368066Y958688D01*
X369408Y957346D01*
X371161Y956620D01*
X373059D01*
X374812Y957346D01*
X376154Y958688D01*
X376200Y958800D01*
X413870D01*
Y953620D01*
X429410D01*
Y969160D01*
X413870D01*
Y963980D01*
X388574D01*
X388006Y965187D01*
X387795Y966520D01*
X388854Y967578D01*
X389580Y969331D01*
X389714Y971236D01*
X391619Y971345D01*
X393372Y972071D01*
X394714Y973413D01*
X396099Y972719D01*
X396222Y972595D01*
X397975Y971869D01*
X399873D01*
X401626Y972595D01*
X402968Y973937D01*
X403694Y975690D01*
Y977588D01*
X402968Y979341D01*
X402624Y979685D01*
Y992256D01*
X403451Y993084D01*
X404178Y994837D01*
Y996734D01*
X403451Y998488D01*
X402109Y999829D01*
X400356Y1000556D01*
X398459D01*
X396706Y999829D01*
X396403Y999527D01*
X393970Y998367D01*
X392217Y999094D01*
X390319D01*
X389192Y1001376D01*
X388854Y1002192D01*
X387512Y1003534D01*
X385759Y1004260D01*
D02*
G37*
G36*
X370519Y997910D02*
X368621D01*
X366868Y997184D01*
X365526Y995842D01*
X364800Y994089D01*
Y992191D01*
X365526Y990438D01*
X366868Y989096D01*
X366980Y989050D01*
Y983747D01*
X366709Y981400D01*
X364811D01*
X363058Y980674D01*
X361716Y979332D01*
X360990Y977579D01*
Y975681D01*
X361716Y973928D01*
X363058Y972586D01*
X364811Y971860D01*
X366709D01*
X368462Y972586D01*
X369804Y973928D01*
X370530Y975681D01*
Y977579D01*
X370484Y977691D01*
X371401Y978609D01*
X371963Y979449D01*
X372160Y980440D01*
Y989050D01*
X372272Y989096D01*
X373614Y990438D01*
X374340Y992191D01*
Y994089D01*
X373614Y995842D01*
X372272Y997184D01*
X370519Y997910D01*
D02*
G37*
G36*
X343849D02*
X341951D01*
X340198Y997184D01*
X338856Y995842D01*
X338130Y994089D01*
Y992191D01*
X338856Y990438D01*
X340198Y989096D01*
X340310Y989050D01*
Y980720D01*
X340198Y980674D01*
X338856Y979332D01*
X338130Y977579D01*
Y975681D01*
X338856Y973928D01*
X340198Y972586D01*
X341951Y971860D01*
X343849D01*
X345602Y972586D01*
X346944Y973928D01*
X347670Y975681D01*
Y977579D01*
X346944Y979332D01*
X345602Y980674D01*
X345490Y980720D01*
Y989050D01*
X345602Y989096D01*
X346944Y990438D01*
X347670Y992191D01*
Y994089D01*
X346944Y995842D01*
X345602Y997184D01*
X343849Y997910D01*
D02*
G37*
G36*
X595309Y976320D02*
X593411D01*
X591658Y975594D01*
X590316Y974252D01*
X589590Y972499D01*
Y970601D01*
X590316Y968848D01*
X591658Y967506D01*
X593411Y966780D01*
X595309D01*
X597062Y967506D01*
X597262Y967706D01*
X610583D01*
X610636Y967578D01*
X611978Y966236D01*
X613731Y965510D01*
X615629D01*
X617382Y966236D01*
X618724Y967578D01*
X619450Y969331D01*
Y971229D01*
X618724Y972982D01*
X617382Y974324D01*
X615629Y975050D01*
X614417D01*
X614340Y975101D01*
X612869Y975394D01*
X612869Y975394D01*
X597262D01*
X597062Y975594D01*
X595309Y976320D01*
D02*
G37*
G36*
X634679Y940760D02*
X632781D01*
X631028Y940034D01*
X629686Y938692D01*
X629640Y938580D01*
X598450D01*
X598404Y938692D01*
X597062Y940034D01*
X595309Y940760D01*
X593411D01*
X591658Y940034D01*
X590316Y938692D01*
X589590Y936939D01*
Y935041D01*
X590316Y933288D01*
X591658Y931946D01*
X593411Y931220D01*
X595309D01*
X597062Y931946D01*
X598404Y933288D01*
X598450Y933400D01*
X629640D01*
X629686Y933288D01*
X631028Y931946D01*
X632781Y931220D01*
X634679D01*
X636432Y931946D01*
X637774Y933288D01*
X638500Y935041D01*
Y936939D01*
X637774Y938692D01*
X636432Y940034D01*
X634679Y940760D01*
D02*
G37*
G36*
X422663Y949160D02*
X420617D01*
X418641Y948631D01*
X416869Y947607D01*
X415423Y946161D01*
X414399Y944389D01*
X413870Y942413D01*
Y940367D01*
X414399Y938391D01*
X415423Y936619D01*
X416869Y935173D01*
X418641Y934149D01*
X420617Y933620D01*
X422663D01*
X424639Y934149D01*
X426411Y935173D01*
X427858Y936619D01*
X428881Y938391D01*
X429410Y940367D01*
Y942413D01*
X428881Y944389D01*
X427858Y946161D01*
X426411Y947607D01*
X424639Y948631D01*
X422663Y949160D01*
D02*
G37*
G36*
Y929160D02*
X420617D01*
X418641Y928631D01*
X416869Y927607D01*
X415423Y926161D01*
X414399Y924389D01*
X413870Y922413D01*
Y920367D01*
X414399Y918391D01*
X415423Y916619D01*
X416869Y915172D01*
X418641Y914149D01*
X420617Y913620D01*
X422663D01*
X424639Y914149D01*
X426411Y915172D01*
X427858Y916619D01*
X428314Y917410D01*
X630251D01*
X630298Y917298D01*
X631640Y915956D01*
X633393Y915230D01*
X635290D01*
X637043Y915956D01*
X638385Y917298D01*
X639112Y919051D01*
Y920949D01*
X638385Y922702D01*
X637043Y924044D01*
X635290Y924770D01*
X633393D01*
X631640Y924044D01*
X630298Y922702D01*
X630251Y922590D01*
X429363D01*
X428881Y924389D01*
X427858Y926161D01*
X426411Y927607D01*
X424639Y928631D01*
X422663Y929160D01*
D02*
G37*
G36*
X602929Y807410D02*
X601031D01*
X599278Y806684D01*
X597936Y805342D01*
X597890Y805230D01*
X496850D01*
X496804Y805342D01*
X495462Y806684D01*
X493709Y807410D01*
X491811D01*
X490058Y806684D01*
X488716Y805342D01*
X487990Y803589D01*
Y801691D01*
X488629Y800150D01*
X488244Y799069D01*
X487452Y797610D01*
X443510D01*
X443464Y797722D01*
X442122Y799064D01*
X440369Y799790D01*
X438471D01*
X436718Y799064D01*
X435376Y797722D01*
X434650Y795969D01*
Y794071D01*
X435376Y792318D01*
X436718Y790976D01*
X438471Y790250D01*
X440369D01*
X442122Y790976D01*
X443464Y792318D01*
X443510Y792430D01*
X554710D01*
X554756Y792318D01*
X556098Y790976D01*
X557851Y790250D01*
X559749D01*
X561502Y790976D01*
X562844Y792318D01*
X563570Y794071D01*
Y795969D01*
X562932Y797510D01*
X563316Y798591D01*
X564108Y800050D01*
X597890D01*
X597936Y799938D01*
X599278Y798596D01*
X601031Y797870D01*
X602929D01*
X604682Y798596D01*
X606024Y799938D01*
X606750Y801691D01*
Y803589D01*
X606024Y805342D01*
X604682Y806684D01*
X602929Y807410D01*
D02*
G37*
G36*
X520379Y780740D02*
X518481D01*
X516728Y780014D01*
X515386Y778672D01*
X515340Y778560D01*
X468910D01*
X468864Y778672D01*
X467522Y780014D01*
X465769Y780740D01*
X463871D01*
X462118Y780014D01*
X460776Y778672D01*
X460730Y778560D01*
X406270D01*
X405822Y778471D01*
X402907D01*
X402824Y778672D01*
X401482Y780014D01*
X399729Y780740D01*
X397831D01*
X396078Y780014D01*
X394736Y778672D01*
X394653Y778471D01*
X376237D01*
X376154Y778672D01*
X374812Y780014D01*
X373059Y780740D01*
X371161D01*
X369408Y780014D01*
X368066Y778672D01*
X367340Y776919D01*
Y775021D01*
X368066Y773268D01*
X369408Y771926D01*
X371161Y771200D01*
X373059D01*
X374812Y771926D01*
X376154Y773268D01*
X376163Y773291D01*
X394727D01*
X394736Y773268D01*
X396078Y771926D01*
X397831Y771200D01*
X399729D01*
X401482Y771926D01*
X402824Y773268D01*
X402833Y773291D01*
X406181D01*
X406629Y773380D01*
X460730D01*
X460776Y773268D01*
X462118Y771926D01*
X463871Y771200D01*
X465769D01*
X467522Y771926D01*
X468864Y773268D01*
X468910Y773380D01*
X515340D01*
X515386Y773268D01*
X516728Y771926D01*
X518481Y771200D01*
X520379D01*
X522132Y771926D01*
X523474Y773268D01*
X524200Y775021D01*
Y776919D01*
X523474Y778672D01*
X522132Y780014D01*
X520379Y780740D01*
D02*
G37*
G36*
X481009Y766770D02*
X479111D01*
X477358Y766044D01*
X476016Y764702D01*
X475290Y762949D01*
Y761051D01*
X476016Y759298D01*
X477358Y757956D01*
X477470Y757910D01*
Y752120D01*
X477358Y752074D01*
X476016Y750732D01*
X475290Y748979D01*
Y747081D01*
X475162Y746726D01*
X473498Y744770D01*
X472563D01*
X470810Y744044D01*
X469468Y742702D01*
X469244Y742160D01*
X429176D01*
X428152Y743184D01*
X426399Y743910D01*
X424501D01*
X422748Y743184D01*
X421406Y741842D01*
X420680Y740089D01*
Y738191D01*
X420799Y737904D01*
X419162Y735364D01*
X355962D01*
X355762Y735564D01*
X354009Y736290D01*
X352111D01*
X350358Y735564D01*
X350158Y735364D01*
X123552D01*
X123352Y735564D01*
X121599Y736290D01*
X119701D01*
X117948Y735564D01*
X116606Y734222D01*
X115880Y732469D01*
Y730571D01*
X116606Y728818D01*
X117948Y727476D01*
X119701Y726750D01*
X121599D01*
X123352Y727476D01*
X123552Y727676D01*
X350158D01*
X350358Y727476D01*
X352111Y726750D01*
X354009D01*
X355762Y727476D01*
X355962Y727676D01*
X434402D01*
X436039Y725136D01*
X435920Y724849D01*
Y722951D01*
X436646Y721198D01*
X437988Y719856D01*
X439741Y719130D01*
X441639D01*
X443392Y719856D01*
X444734Y721198D01*
X444780Y721310D01*
X456920D01*
X456966Y721198D01*
X458308Y719856D01*
X460061Y719130D01*
X461959D01*
X463712Y719856D01*
X465054Y721198D01*
X465780Y722951D01*
Y724849D01*
X465054Y726602D01*
X463712Y727944D01*
X461959Y728670D01*
X460061D01*
X458308Y727944D01*
X456966Y726602D01*
X456920Y726490D01*
X449808D01*
X449016Y727949D01*
X448632Y729030D01*
X449270Y730571D01*
Y732469D01*
X448544Y734222D01*
X448326Y734440D01*
X449378Y736980D01*
X469786D01*
X470810Y735956D01*
X472563Y735230D01*
X474461D01*
X476214Y735956D01*
X477556Y737298D01*
X478282Y739051D01*
Y740949D01*
X478410Y741304D01*
X480074Y743260D01*
X481009D01*
X482762Y743986D01*
X484104Y745328D01*
X484830Y747081D01*
Y748979D01*
X484104Y750732D01*
X482762Y752074D01*
X482650Y752120D01*
Y757910D01*
X482762Y757956D01*
X484104Y759298D01*
X484830Y761051D01*
Y762949D01*
X484104Y764702D01*
X482762Y766044D01*
X481009Y766770D01*
D02*
G37*
G36*
X474659Y711460D02*
X472761D01*
X471008Y710734D01*
X469666Y709392D01*
X469502Y708995D01*
X442021D01*
X440852Y710164D01*
X439099Y710890D01*
X437201D01*
X435448Y710164D01*
X434106Y708822D01*
X433380Y707069D01*
Y705171D01*
X434106Y703418D01*
X435448Y702076D01*
X437201Y701350D01*
X439099D01*
X440852Y702076D01*
X441093Y702318D01*
X441410Y702215D01*
X443540Y700719D01*
Y698821D01*
X444266Y697068D01*
X443152Y694590D01*
X417090D01*
X417044Y694702D01*
X415702Y696044D01*
X413949Y696770D01*
X412051D01*
X410298Y696044D01*
X408956Y694702D01*
X408230Y692949D01*
Y691051D01*
X408956Y689298D01*
X410298Y687956D01*
X412051Y687230D01*
X413949D01*
X415702Y687956D01*
X417044Y689298D01*
X417090Y689410D01*
X476054D01*
X477358Y688106D01*
X479111Y687380D01*
X481009D01*
X482762Y688106D01*
X484104Y689448D01*
X484830Y691201D01*
Y693099D01*
X486553Y695576D01*
X504947D01*
X508493Y692030D01*
X509036Y690718D01*
X510378Y689376D01*
X512131Y688650D01*
X514029D01*
X515782Y689376D01*
X515982Y689576D01*
X555898D01*
X556098Y689376D01*
X557851Y688650D01*
X559749D01*
X561502Y689376D01*
X562844Y690718D01*
X563570Y692471D01*
Y694369D01*
X562844Y696122D01*
X561502Y697464D01*
X559749Y698190D01*
X557851D01*
X556098Y697464D01*
X555898Y697264D01*
X515982D01*
X515782Y697464D01*
X514029Y698190D01*
X513205D01*
X509257Y702138D01*
X508010Y702971D01*
X506539Y703264D01*
X506539Y703264D01*
X480203D01*
X478480Y705741D01*
Y707639D01*
X477754Y709392D01*
X476412Y710734D01*
X474659Y711460D01*
D02*
G37*
G36*
X95020Y679270D02*
X94435D01*
Y670635D01*
X103070D01*
Y671220D01*
X102438Y673578D01*
X101218Y675692D01*
X99492Y677418D01*
X97378Y678638D01*
X95020Y679270D01*
D02*
G37*
G36*
X93165D02*
X92580D01*
X90222Y678638D01*
X88108Y677418D01*
X86382Y675692D01*
X85162Y673578D01*
X84530Y671220D01*
Y670635D01*
X93165D01*
Y679270D01*
D02*
G37*
G36*
X171220D02*
X168780D01*
X166422Y678638D01*
X164308Y677418D01*
X162582Y675692D01*
X161362Y673578D01*
X160730Y671220D01*
Y668780D01*
X161362Y666422D01*
X162582Y664308D01*
X164308Y662582D01*
X166422Y661362D01*
X168780Y660730D01*
X171220D01*
X173578Y661362D01*
X175692Y662582D01*
X177418Y664308D01*
X178638Y666422D01*
X178903Y667410D01*
X380910D01*
X380956Y667298D01*
X382298Y665956D01*
X384051Y665230D01*
X385949D01*
X387702Y665956D01*
X389044Y667298D01*
X389770Y669051D01*
Y670949D01*
X389044Y672702D01*
X387702Y674044D01*
X385949Y674770D01*
X384051D01*
X382298Y674044D01*
X380956Y672702D01*
X380910Y672590D01*
X178903D01*
X178638Y673578D01*
X177418Y675692D01*
X175692Y677418D01*
X173578Y678638D01*
X171220Y679270D01*
D02*
G37*
G36*
X145820D02*
X143380D01*
X141022Y678638D01*
X138908Y677418D01*
X137182Y675692D01*
X135962Y673578D01*
X135330Y671220D01*
Y668780D01*
X135962Y666422D01*
X137182Y664308D01*
X138908Y662582D01*
X141022Y661362D01*
X143380Y660730D01*
X145820D01*
X148178Y661362D01*
X150292Y662582D01*
X152018Y664308D01*
X153238Y666422D01*
X153870Y668780D01*
Y671220D01*
X153238Y673578D01*
X152018Y675692D01*
X150292Y677418D01*
X148178Y678638D01*
X145820Y679270D01*
D02*
G37*
G36*
X120420D02*
X117980D01*
X115622Y678638D01*
X113508Y677418D01*
X111782Y675692D01*
X110562Y673578D01*
X109930Y671220D01*
Y668780D01*
X110562Y666422D01*
X111782Y664308D01*
X113508Y662582D01*
X115622Y661362D01*
X117980Y660730D01*
X120420D01*
X122778Y661362D01*
X124892Y662582D01*
X126618Y664308D01*
X127838Y666422D01*
X128470Y668780D01*
Y671220D01*
X127838Y673578D01*
X126618Y675692D01*
X124892Y677418D01*
X122778Y678638D01*
X120420Y679270D01*
D02*
G37*
G36*
X103070Y669365D02*
X94435D01*
Y660730D01*
X95020D01*
X97378Y661362D01*
X99492Y662582D01*
X101218Y664308D01*
X102438Y666422D01*
X103070Y668780D01*
Y669365D01*
D02*
G37*
G36*
X93165D02*
X84530D01*
Y668780D01*
X85162Y666422D01*
X86382Y664308D01*
X88108Y662582D01*
X90222Y661362D01*
X92580Y660730D01*
X93165D01*
Y669365D01*
D02*
G37*
G36*
X395949Y654770D02*
X394051D01*
X392298Y654044D01*
X390956Y652702D01*
X390910Y652590D01*
X149090D01*
X149044Y652702D01*
X147702Y654044D01*
X145949Y654770D01*
X144051D01*
X142298Y654044D01*
X140956Y652702D01*
X140230Y650949D01*
Y649051D01*
X140956Y647298D01*
X142298Y645956D01*
X144051Y645230D01*
X145949D01*
X147702Y645956D01*
X149044Y647298D01*
X149090Y647410D01*
X390910D01*
X390956Y647298D01*
X392298Y645956D01*
X394051Y645230D01*
X395949D01*
X397702Y645956D01*
X399044Y647298D01*
X399770Y649051D01*
Y650949D01*
X399044Y652702D01*
X397702Y654044D01*
X395949Y654770D01*
D02*
G37*
G36*
X120329Y633420D02*
X118431D01*
X116678Y632694D01*
X115336Y631352D01*
X114610Y629599D01*
Y627701D01*
X115336Y625948D01*
X116678Y624606D01*
X118431Y623880D01*
X120329D01*
X121969Y624559D01*
X187946D01*
X188393Y624112D01*
X190146Y623386D01*
X192044D01*
X193797Y624112D01*
X195139Y625454D01*
X195865Y627207D01*
Y629105D01*
X195139Y630858D01*
X193797Y632200D01*
X192044Y632926D01*
X190146D01*
X188506Y632247D01*
X122529D01*
X122082Y632694D01*
X120329Y633420D01*
D02*
G37*
G36*
X16813Y608770D02*
X15635D01*
Y595635D01*
X28770D01*
Y596813D01*
X27832Y600315D01*
X26019Y603455D01*
X23455Y606019D01*
X20315Y607832D01*
X16813Y608770D01*
D02*
G37*
G36*
X574989Y588970D02*
X573091D01*
X571338Y588244D01*
X571138Y588044D01*
X540112D01*
X539912Y588244D01*
X538159Y588970D01*
X536261D01*
X534508Y588244D01*
X534308Y588044D01*
X491852D01*
X491652Y588244D01*
X489899Y588970D01*
X488001D01*
X486248Y588244D01*
X484906Y586902D01*
X484180Y585149D01*
Y583251D01*
X484906Y581498D01*
X486248Y580156D01*
X488001Y579430D01*
X489899D01*
X491652Y580156D01*
X491852Y580356D01*
X534308D01*
X534508Y580156D01*
X536261Y579430D01*
X538159D01*
X539912Y580156D01*
X540112Y580356D01*
X551167D01*
X551938Y577816D01*
X551780Y577710D01*
X550394Y575636D01*
X549907Y573190D01*
Y568325D01*
X556300D01*
X562693D01*
Y573190D01*
X562206Y575636D01*
X560820Y577710D01*
X560662Y577816D01*
X561433Y580356D01*
X571138D01*
X571338Y580156D01*
X573091Y579430D01*
X574989D01*
X576742Y580156D01*
X578084Y581498D01*
X578810Y583251D01*
Y585149D01*
X578084Y586902D01*
X576742Y588244D01*
X574989Y588970D01*
D02*
G37*
G36*
X341813Y608770D02*
X338187D01*
X334685Y607832D01*
X331545Y606019D01*
X328981Y603455D01*
X327168Y600315D01*
X326230Y596813D01*
Y593187D01*
X327168Y589685D01*
X328981Y586545D01*
X331545Y583981D01*
X334685Y582168D01*
X338187Y581230D01*
X341813D01*
X345315Y582168D01*
X348455Y583981D01*
X351019Y586545D01*
X352832Y589685D01*
X353770Y593187D01*
Y596813D01*
X352832Y600315D01*
X351019Y603455D01*
X348455Y606019D01*
X345315Y607832D01*
X341813Y608770D01*
D02*
G37*
G36*
X216813D02*
X213187D01*
X209685Y607832D01*
X206545Y606019D01*
X203981Y603455D01*
X202168Y600315D01*
X201230Y596813D01*
Y593187D01*
X202168Y589685D01*
X203981Y586545D01*
X206545Y583981D01*
X209685Y582168D01*
X213187Y581230D01*
X216813D01*
X220315Y582168D01*
X223455Y583981D01*
X226019Y586545D01*
X227832Y589685D01*
X228770Y593187D01*
Y596813D01*
X227832Y600315D01*
X226019Y603455D01*
X223455Y606019D01*
X220315Y607832D01*
X216813Y608770D01*
D02*
G37*
G36*
X141813D02*
X138187D01*
X134685Y607832D01*
X131545Y606019D01*
X128981Y603455D01*
X127168Y600315D01*
X126230Y596813D01*
Y593187D01*
X127168Y589685D01*
X128981Y586545D01*
X131545Y583981D01*
X134685Y582168D01*
X138187Y581230D01*
X141813D01*
X145315Y582168D01*
X148455Y583981D01*
X151019Y586545D01*
X152832Y589685D01*
X153770Y593187D01*
Y596813D01*
X152832Y600315D01*
X151019Y603455D01*
X148455Y606019D01*
X145315Y607832D01*
X141813Y608770D01*
D02*
G37*
G36*
X28770Y594365D02*
X15635D01*
Y581230D01*
X16813D01*
X20315Y582168D01*
X23455Y583981D01*
X26019Y586545D01*
X27832Y589685D01*
X28770Y593187D01*
Y594365D01*
D02*
G37*
G36*
X470535Y579456D02*
Y568325D01*
X476293D01*
Y573190D01*
X475806Y575636D01*
X474420Y577710D01*
X472346Y579096D01*
X470535Y579456D01*
D02*
G37*
G36*
X469265D02*
X467454Y579096D01*
X465380Y577710D01*
X463994Y575636D01*
X463507Y573190D01*
Y568325D01*
X469265D01*
Y579456D01*
D02*
G37*
G36*
X562693Y567055D02*
X556935D01*
Y555924D01*
X558746Y556284D01*
X560820Y557670D01*
X562206Y559744D01*
X562693Y562190D01*
Y567055D01*
D02*
G37*
G36*
X543152Y568480D02*
X540848D01*
X538720Y567598D01*
X537091Y565970D01*
X536210Y563842D01*
Y561538D01*
X537091Y559410D01*
X538720Y557781D01*
X540848Y556900D01*
X543152D01*
X545280Y557781D01*
X546908Y559410D01*
X547558Y560979D01*
X550137Y561036D01*
X550394Y559744D01*
X551780Y557670D01*
X553854Y556284D01*
X555665Y555924D01*
Y567055D01*
X549907D01*
Y565368D01*
X547367Y564863D01*
X546908Y565970D01*
X545280Y567598D01*
X543152Y568480D01*
D02*
G37*
G36*
X399729Y608020D02*
X397831D01*
X396078Y607294D01*
X394736Y605952D01*
X394010Y604199D01*
Y602301D01*
X394736Y600548D01*
X396078Y599206D01*
X396190Y599160D01*
Y592030D01*
X396387Y591039D01*
X396949Y590199D01*
X435259Y551889D01*
X436099Y551327D01*
X437090Y551130D01*
X496290D01*
X496336Y551018D01*
X497678Y549676D01*
X499431Y548950D01*
X501329D01*
X503082Y549676D01*
X504424Y551018D01*
X505150Y552771D01*
Y554669D01*
X504424Y556422D01*
X503082Y557764D01*
X501329Y558490D01*
X499431D01*
X497678Y557764D01*
X496336Y556422D01*
X496290Y556310D01*
X489600D01*
X488548Y558850D01*
X489109Y559410D01*
X489990Y561538D01*
Y563842D01*
X489109Y565970D01*
X487480Y567598D01*
X485352Y568480D01*
X483048D01*
X480920Y567598D01*
X479291Y565970D01*
X478833Y564863D01*
X476293Y565368D01*
Y567055D01*
X469900D01*
X463507D01*
Y562190D01*
X463994Y559744D01*
X464591Y558850D01*
X463233Y556310D01*
X438163D01*
X401370Y593103D01*
Y599160D01*
X401482Y599206D01*
X402824Y600548D01*
X403550Y602301D01*
Y604199D01*
X402824Y605952D01*
X401482Y607294D01*
X399729Y608020D01*
D02*
G37*
G36*
X341813Y558770D02*
X340635D01*
Y545635D01*
X353770D01*
Y546813D01*
X352832Y550315D01*
X351019Y553455D01*
X348455Y556019D01*
X345315Y557832D01*
X341813Y558770D01*
D02*
G37*
G36*
X339365D02*
X338187D01*
X334685Y557832D01*
X331545Y556019D01*
X328981Y553455D01*
X327168Y550315D01*
X326230Y546813D01*
Y545635D01*
X339365D01*
Y558770D01*
D02*
G37*
G36*
X531809Y544520D02*
X529911D01*
X528158Y543794D01*
X526816Y542452D01*
X526756Y542306D01*
X405445D01*
X405413Y542385D01*
X404071Y543727D01*
X402318Y544453D01*
X400420D01*
X398667Y543727D01*
X397325Y542385D01*
X396599Y540632D01*
Y538734D01*
X397325Y536981D01*
X398667Y535639D01*
X400420Y534913D01*
X402318D01*
X404071Y535639D01*
X405413Y536981D01*
X405473Y537127D01*
X463209D01*
X463711Y536439D01*
X464334Y534587D01*
X463849Y533861D01*
X463556Y532390D01*
Y526525D01*
X469900D01*
X476244D01*
Y532390D01*
X475951Y533861D01*
X475466Y534587D01*
X476089Y536439D01*
X476591Y537127D01*
X526784D01*
X526816Y537048D01*
X528158Y535706D01*
X529911Y534980D01*
X531809D01*
X533562Y535706D01*
X534904Y537048D01*
X535630Y538801D01*
Y540699D01*
X534904Y542452D01*
X533562Y543794D01*
X531809Y544520D01*
D02*
G37*
G36*
X635949Y549770D02*
X634051D01*
X632298Y549044D01*
X630956Y547702D01*
X630230Y545949D01*
Y544051D01*
X630956Y542298D01*
X632298Y540956D01*
X634051Y540230D01*
X635949D01*
X637702Y540956D01*
X639044Y542298D01*
X639770Y544051D01*
Y545949D01*
X639044Y547702D01*
X637702Y549044D01*
X635949Y549770D01*
D02*
G37*
G36*
X353770Y544365D02*
X340635D01*
Y531230D01*
X341813D01*
X345315Y532168D01*
X348455Y533981D01*
X351019Y536545D01*
X352832Y539685D01*
X353770Y543187D01*
Y544365D01*
D02*
G37*
G36*
X339365D02*
X326230D01*
Y543187D01*
X327168Y539685D01*
X328981Y536545D01*
X331545Y533981D01*
X334685Y532168D01*
X338187Y531230D01*
X339365D01*
Y544365D01*
D02*
G37*
G36*
X216813Y558770D02*
X213187D01*
X209685Y557832D01*
X206545Y556019D01*
X203981Y553455D01*
X202168Y550315D01*
X201230Y546813D01*
Y543187D01*
X202168Y539685D01*
X203981Y536545D01*
X206545Y533981D01*
X209685Y532168D01*
X213187Y531230D01*
X216813D01*
X220315Y532168D01*
X223455Y533981D01*
X226019Y536545D01*
X227832Y539685D01*
X228770Y543187D01*
Y546813D01*
X227832Y550315D01*
X226019Y553455D01*
X223455Y556019D01*
X220315Y557832D01*
X216813Y558770D01*
D02*
G37*
G36*
X141813D02*
X138187D01*
X134685Y557832D01*
X131545Y556019D01*
X128981Y553455D01*
X127168Y550315D01*
X126230Y546813D01*
Y543187D01*
X127168Y539685D01*
X128981Y536545D01*
X131545Y533981D01*
X134685Y532168D01*
X138187Y531230D01*
X141813D01*
X145315Y532168D01*
X148455Y533981D01*
X151019Y536545D01*
X152832Y539685D01*
X153770Y543187D01*
Y546813D01*
X152832Y550315D01*
X151019Y553455D01*
X148455Y556019D01*
X145315Y557832D01*
X141813Y558770D01*
D02*
G37*
G36*
X558800Y536234D02*
X556935D01*
Y526525D01*
X562644D01*
Y532390D01*
X562351Y533861D01*
X561518Y535108D01*
X560271Y535941D01*
X558800Y536234D01*
D02*
G37*
G36*
X555665D02*
X553800D01*
X552329Y535941D01*
X551082Y535108D01*
X550249Y533861D01*
X549956Y532390D01*
Y526525D01*
X555665D01*
Y536234D01*
D02*
G37*
G36*
X562644Y525255D02*
X556935D01*
Y515546D01*
X558800D01*
X560271Y515839D01*
X561518Y516672D01*
X562351Y517919D01*
X562644Y519390D01*
Y525255D01*
D02*
G37*
G36*
X555665D02*
X549956D01*
Y519390D01*
X550249Y517919D01*
X551082Y516672D01*
X552329Y515839D01*
X553800Y515546D01*
X555665D01*
Y525255D01*
D02*
G37*
G36*
X476244D02*
X470535D01*
Y515546D01*
X472400D01*
X473871Y515839D01*
X475118Y516672D01*
X475951Y517919D01*
X476244Y519390D01*
Y525255D01*
D02*
G37*
G36*
X469265D02*
X463556D01*
Y519390D01*
X463849Y517919D01*
X464682Y516672D01*
X465929Y515839D01*
X467400Y515546D01*
X469265D01*
Y525255D01*
D02*
G37*
%LPD*%
D14*
X594360Y935990D02*
X633730D01*
X444500Y1301750D02*
X633730D01*
X440690Y723900D02*
X461010D01*
X170000Y670000D02*
X385000D01*
X384631Y984878D02*
X384810Y985058D01*
X384631Y970460D02*
Y984878D01*
X384810Y985058D02*
Y999490D01*
X384631Y970460D02*
X384810Y970280D01*
X460880Y1376680D02*
X479200Y1395000D01*
X384810Y1376680D02*
X460880D01*
X383540Y872490D02*
X533400D01*
X392430Y866450D02*
X539962D01*
X145000Y650000D02*
X395000D01*
X390671Y993921D02*
X391160Y994410D01*
X539962Y866450D02*
X540026Y866514D01*
X391181Y994410D02*
X391268Y994324D01*
X391160Y994410D02*
X391181D01*
X390671Y976115D02*
Y993921D01*
X441640Y1407160D02*
X453800Y1395000D01*
X391160Y1407160D02*
X441640D01*
X365760Y840740D02*
X424528D01*
X437228Y828040D01*
X365760Y976630D02*
X369570Y980440D01*
Y993140D01*
X557530Y869950D02*
X641350D01*
X437228Y828040D02*
X641506D01*
X642056Y828590D01*
X369570Y1414780D02*
X403860D01*
X342900Y819150D02*
X628650D01*
X548640Y863600D02*
X628650D01*
X342900Y976630D02*
Y993140D01*
Y1431290D02*
X427990D01*
X530826Y539716D02*
X530860Y539750D01*
X401403Y539716D02*
X530826D01*
X401369Y539683D02*
X401403Y539716D01*
X437090Y553720D02*
X500380D01*
X398780Y592030D02*
X437090Y553720D01*
X400500Y859859D02*
X400570Y859930D01*
X524930D01*
X421640Y921390D02*
X423030Y920000D01*
X634342D01*
X372199Y775881D02*
X406181D01*
X464820Y775970D02*
X519430D01*
X372110Y961390D02*
X421640D01*
X406270Y775970D02*
X464820D01*
X406181Y775881D02*
X406270Y775970D01*
X398780Y592030D02*
Y603250D01*
X209550Y1052830D02*
X209862Y1053142D01*
X506730Y1080770D02*
X571500D01*
X209862Y1053142D02*
X581959D01*
X300459Y878840D02*
X302689Y881070D01*
X452493D01*
X454723Y878840D02*
X455930D01*
X452493Y881070D02*
X454723Y878840D01*
X214630D02*
X300459D01*
X439420Y795020D02*
X558800D01*
X413000Y692000D02*
X479910D01*
X480060Y692150D01*
X473425Y706405D02*
X473710Y706690D01*
X438435Y706405D02*
X473425D01*
X473082Y739570D02*
X473512Y740000D01*
X425880Y739570D02*
X473082D01*
X492760Y802640D02*
X601980D01*
X480060Y748030D02*
Y762000D01*
X425450Y739140D02*
X425880Y739570D01*
X438150Y706120D02*
X438435Y706405D01*
D60*
X421640Y941390D02*
D03*
Y921390D02*
D03*
D62*
Y961390D02*
D03*
D65*
X614139Y970280D02*
X614680D01*
X612869Y971550D02*
X614139Y970280D01*
X594360Y971550D02*
X612869D01*
X377096Y1347377D02*
X547039D01*
X353060Y852170D02*
X353081Y852149D01*
X490295D01*
X119627Y628403D02*
X190848D01*
X119380Y628650D02*
X119627Y628403D01*
X190848D02*
X191095Y628156D01*
X353060Y731520D02*
X444500D01*
X120650D02*
X353060D01*
X398780Y976639D02*
Y995680D01*
Y976639D02*
X398924D01*
X398780Y995680D02*
X399228D01*
X375920Y1346200D02*
X377096Y1347377D01*
X399228Y995680D02*
X399318Y995770D01*
X399391D01*
X399408Y995786D01*
X375090Y1187890D02*
X404495D01*
X448660Y699420D02*
X506539D01*
X448310Y699770D02*
X448660Y699420D01*
X506539D02*
X512539Y693420D01*
X513080D01*
X490295Y852149D02*
X490305Y852160D01*
X513080Y693420D02*
X558800D01*
X490305Y852160D02*
X619750D01*
X619760Y852170D01*
X480060Y1033780D02*
X570230D01*
X603250D01*
X375920D02*
X480060D01*
X537210Y584200D02*
X574040D01*
X488950D02*
X537210D01*
X448500Y1206500D02*
X614680D01*
X466710Y1150000D02*
X467360Y1149350D01*
X430000Y1225000D02*
X448500Y1206500D01*
X430000Y1150000D02*
X466710D01*
X494030Y1451610D02*
X594360D01*
X523240Y1337310D02*
X594360D01*
D66*
X484200Y562690D02*
D03*
X542000D02*
D03*
D67*
X556300Y567690D02*
D03*
X469900D02*
D03*
D68*
X556300Y525890D02*
D03*
X469900D02*
D03*
D69*
X453800Y1395000D02*
D03*
X479200D02*
D03*
X530000D02*
D03*
X428400D02*
D03*
X403000D02*
D03*
X504600D02*
D03*
X119200Y670000D02*
D03*
X170000D02*
D03*
X144600D02*
D03*
X93800D02*
D03*
D70*
X555000Y1275000D02*
D03*
X555000Y1100000D02*
D03*
X15000Y595000D02*
D03*
X340000Y545000D02*
D03*
X215000Y595000D02*
D03*
X340000D02*
D03*
X215000Y545000D02*
D03*
X140000Y595000D02*
D03*
X15000Y545000D02*
D03*
X140000D02*
D03*
X430000Y1100000D02*
D03*
X555000Y1150000D02*
D03*
X430000D02*
D03*
X555000Y1225000D02*
D03*
X430000D02*
D03*
Y1275000D02*
D03*
D71*
X594360Y935990D02*
D03*
X633730D02*
D03*
Y1301750D02*
D03*
X444500D02*
D03*
X440690Y723900D02*
D03*
X461010D02*
D03*
X594360Y971550D02*
D03*
X191095Y628156D02*
D03*
X119380Y628650D02*
D03*
X120650Y731520D02*
D03*
X353060D02*
D03*
X444500D02*
D03*
X353060Y852170D02*
D03*
X398924Y976639D02*
D03*
X375920Y1187450D02*
D03*
Y1346200D02*
D03*
X399408Y995786D02*
D03*
X398780Y1033780D02*
D03*
X404495Y1187890D02*
D03*
X448310Y699770D02*
D03*
X490295Y852149D02*
D03*
X513080Y693420D02*
D03*
X558800D02*
D03*
X619760Y852170D02*
D03*
X480060Y1033780D02*
D03*
X547039Y1347377D02*
D03*
X570230Y1033780D02*
D03*
X603250D02*
D03*
X375920D02*
D03*
X385000Y670000D02*
D03*
X384810Y970280D02*
D03*
Y999490D02*
D03*
Y1376680D02*
D03*
X533400Y872490D02*
D03*
X383540D02*
D03*
X145000Y650000D02*
D03*
X395000D02*
D03*
X540026Y866514D02*
D03*
X391268Y994324D02*
D03*
X390671Y976115D02*
D03*
X391160Y1407160D02*
D03*
X392430Y866450D02*
D03*
X641350Y869950D02*
D03*
X365760Y976630D02*
D03*
X369570Y993140D02*
D03*
Y1414780D02*
D03*
X642056Y828590D02*
D03*
X365760Y840740D02*
D03*
X557530Y869950D02*
D03*
X403860Y1414780D02*
D03*
X628650Y819150D02*
D03*
Y863600D02*
D03*
X342900Y993140D02*
D03*
Y976630D02*
D03*
X427990Y1431290D02*
D03*
X342900D02*
D03*
Y819150D02*
D03*
X548640Y863600D02*
D03*
X537210Y584200D02*
D03*
X488950D02*
D03*
X530860Y539750D02*
D03*
X500380Y553720D02*
D03*
X574040Y584200D02*
D03*
X400500Y859859D02*
D03*
X635000Y545000D02*
D03*
X634342Y920000D02*
D03*
X372110Y961390D02*
D03*
Y775970D02*
D03*
X398780D02*
D03*
X464820D02*
D03*
X519430D02*
D03*
X398780Y603250D02*
D03*
X401369Y539683D02*
D03*
X523240Y1337310D02*
D03*
X594360D02*
D03*
X467360Y1149350D02*
D03*
X614680Y1206500D02*
D03*
X601980Y802640D02*
D03*
X614680Y970280D02*
D03*
X492760Y802640D02*
D03*
X525000Y860000D02*
D03*
X581959Y1053142D02*
D03*
X571500Y1080770D02*
D03*
X506730D02*
D03*
X480060Y692150D02*
D03*
X438150Y706120D02*
D03*
X473710Y706690D02*
D03*
X473512Y740000D02*
D03*
X480060Y762000D02*
D03*
Y748030D02*
D03*
X439420Y795020D02*
D03*
X558800D02*
D03*
X425450Y739140D02*
D03*
X455930Y878840D02*
D03*
X209550Y1052830D02*
D03*
X413000Y692000D02*
D03*
X594360Y1451610D02*
D03*
X494030D02*
D03*
X214630Y878840D02*
D03*
M02*
