G04*
G04 #@! TF.GenerationSoftware,Altium Limited,Altium Designer,26.3.0 (6)*
G04*
G04 Layer_Color=255*
%FSLAX44Y44*%
%MOMM*%
G71*
G04*
G04 #@! TF.SameCoordinates,0E51D8CF-22DB-4B3F-A48B-E46F4DA98146*
G04*
G04*
G04 #@! TF.FilePolarity,Positive*
G04*
G01*
G75*
%ADD18R,1.0900X0.6100*%
%ADD19R,1.0500X0.2500*%
%ADD20R,0.3000X1.1500*%
%ADD21R,0.6000X1.1500*%
%ADD22R,5.0000X8.0000*%
%ADD23C,5.0000*%
%ADD24R,0.5500X1.4000*%
%ADD25R,1.4000X0.5500*%
%ADD26R,1.2000X1.2000*%
%ADD27R,1.2000X1.2000*%
%ADD28R,1.3500X1.8000*%
%ADD29O,1.4000X0.5500*%
%ADD30R,1.4000X1.0000*%
%ADD31R,1.7000X3.5000*%
%ADD32R,5.0000X5.0000*%
%ADD33R,5.5000X0.8000*%
%ADD34O,1.0500X0.2500*%
%ADD35R,1.4400X1.5000*%
%ADD60C,1.3000*%
%ADD62R,1.3000X1.3000*%
%ADD63R,0.9000X1.0000*%
%ADD64R,1.0000X0.9000*%
%ADD66C,0.6500*%
%ADD67O,1.0000X2.1000*%
G04:AMPARAMS|DCode=68|XSize=1.8mm|YSize=1mm|CornerRadius=0.25mm|HoleSize=0mm|Usage=FLASHONLY|Rotation=90.000|XOffset=0mm|YOffset=0mm|HoleType=Round|Shape=RoundedRectangle|*
%AMROUNDEDRECTD68*
21,1,1.8000,0.5000,0,0,90.0*
21,1,1.3000,1.0000,0,0,90.0*
1,1,0.5000,0.2500,0.6500*
1,1,0.5000,0.2500,-0.6500*
1,1,0.5000,-0.2500,-0.6500*
1,1,0.5000,-0.2500,0.6500*
%
%ADD68ROUNDEDRECTD68*%
%ADD69C,1.6000*%
%ADD70C,2.5000*%
D18*
X480600Y1328420D02*
D03*
X459200Y1319270D02*
D03*
Y1337570D02*
D03*
D19*
X435550Y760000D02*
D03*
X464450Y750000D02*
D03*
X435550D02*
D03*
X464450Y765000D02*
D03*
Y755000D02*
D03*
Y770000D02*
D03*
X435550Y765000D02*
D03*
Y755000D02*
D03*
X464450Y760000D02*
D03*
D20*
X495600Y573440D02*
D03*
X500600D02*
D03*
X505600D02*
D03*
X530600D02*
D03*
X525600D02*
D03*
X520600D02*
D03*
X510600D02*
D03*
X515600D02*
D03*
D21*
X537100D02*
D03*
X489100D02*
D03*
X545100D02*
D03*
X481100D02*
D03*
D22*
X565000Y645000D02*
D03*
X465000D02*
D03*
D23*
X560000Y1455000D02*
D03*
D24*
X485000Y997000D02*
D03*
X565000D02*
D03*
X501000Y883000D02*
D03*
X533000D02*
D03*
X541000D02*
D03*
X557000D02*
D03*
X549000D02*
D03*
X557000Y997000D02*
D03*
X493000D02*
D03*
X509000Y883000D02*
D03*
X493000D02*
D03*
X501000Y997000D02*
D03*
X509000D02*
D03*
X517000D02*
D03*
X525000D02*
D03*
X533000D02*
D03*
X541000D02*
D03*
X549000D02*
D03*
X565000Y883000D02*
D03*
X525000D02*
D03*
X517000D02*
D03*
X485000D02*
D03*
D25*
X582000Y908000D02*
D03*
Y900000D02*
D03*
X468000Y948000D02*
D03*
X582000Y980000D02*
D03*
Y972000D02*
D03*
Y964000D02*
D03*
Y956000D02*
D03*
Y948000D02*
D03*
Y940000D02*
D03*
Y932000D02*
D03*
Y924000D02*
D03*
Y916000D02*
D03*
X468000Y900000D02*
D03*
Y908000D02*
D03*
Y916000D02*
D03*
Y924000D02*
D03*
Y932000D02*
D03*
Y940000D02*
D03*
Y956000D02*
D03*
Y964000D02*
D03*
Y972000D02*
D03*
D26*
X513420Y703580D02*
D03*
X492420D02*
D03*
D27*
X410000Y770500D02*
D03*
Y749500D02*
D03*
D28*
X585000Y573750D02*
D03*
Y546250D02*
D03*
D29*
X468000Y980000D02*
D03*
D30*
X491920Y755040D02*
D03*
Y774040D02*
D03*
X513920Y764540D02*
D03*
D31*
X580750Y715000D02*
D03*
X539250D02*
D03*
D32*
X460000Y1455000D02*
D03*
D33*
X553500Y826770D02*
D03*
X462500D02*
D03*
D34*
X435550Y770000D02*
D03*
D35*
X450000Y760000D02*
D03*
D60*
X421640Y941390D02*
D03*
Y921390D02*
D03*
D62*
Y961390D02*
D03*
D63*
X483870Y1363980D02*
D03*
X466870D02*
D03*
X427460Y723730D02*
D03*
X410460D02*
D03*
X490220Y863600D02*
D03*
X480450Y1016000D02*
D03*
X569840Y1017270D02*
D03*
X552840D02*
D03*
X497450Y1016000D02*
D03*
X507220Y863600D02*
D03*
X370000Y620000D02*
D03*
X369960Y603250D02*
D03*
X370000Y540000D02*
D03*
Y520000D02*
D03*
X369960Y581660D02*
D03*
X386960D02*
D03*
X370000Y560000D02*
D03*
X387000D02*
D03*
Y620000D02*
D03*
X386960Y603250D02*
D03*
X387000Y520000D02*
D03*
Y540000D02*
D03*
X410460Y703730D02*
D03*
X427460D02*
D03*
X523500Y1365000D02*
D03*
X506500D02*
D03*
D64*
X191770Y612630D02*
D03*
X403860Y1167620D02*
D03*
X604520Y914010D02*
D03*
X405130Y1208160D02*
D03*
X558800Y753110D02*
D03*
X585470Y1099430D02*
D03*
X604520Y897010D02*
D03*
X605000Y847000D02*
D03*
X580000Y770000D02*
D03*
X449522Y949537D02*
D03*
X415000Y845000D02*
D03*
X449522Y932537D02*
D03*
X165100Y561830D02*
D03*
Y544830D02*
D03*
X605000Y830000D02*
D03*
X585470Y1082430D02*
D03*
X580000Y753000D02*
D03*
X558800Y770110D02*
D03*
X405130Y1225160D02*
D03*
X415000Y828000D02*
D03*
X403860Y1150620D02*
D03*
X191770Y595630D02*
D03*
D66*
X484200Y562690D02*
D03*
X542000D02*
D03*
D67*
X556300Y567690D02*
D03*
X469900D02*
D03*
D68*
X556300Y525890D02*
D03*
X469900D02*
D03*
D69*
X453800Y1395000D02*
D03*
X479200D02*
D03*
X530000D02*
D03*
X428400D02*
D03*
X403000D02*
D03*
X504600D02*
D03*
X119200Y670000D02*
D03*
X170000D02*
D03*
X144600D02*
D03*
X93800D02*
D03*
D70*
X555000Y1275000D02*
D03*
X555000Y1100000D02*
D03*
X15000Y595000D02*
D03*
X340000Y545000D02*
D03*
X215000Y595000D02*
D03*
X340000D02*
D03*
X215000Y545000D02*
D03*
X140000Y595000D02*
D03*
X15000Y545000D02*
D03*
X140000D02*
D03*
X430000Y1100000D02*
D03*
X555000Y1150000D02*
D03*
X430000D02*
D03*
X555000Y1225000D02*
D03*
X430000D02*
D03*
Y1275000D02*
D03*
M02*
