G04*
G04 #@! TF.GenerationSoftware,Altium Limited,Altium Designer,26.3.0 (6)*
G04*
G04 Layer_Color=8388736*
%FSLAX44Y44*%
%MOMM*%
G71*
G04*
G04 #@! TF.SameCoordinates,0E51D8CF-22DB-4B3F-A48B-E46F4DA98146*
G04*
G04*
G04 #@! TF.FilePolarity,Positive*
G04*
G01*
G75*
%ADD10C,0.2000*%
%ADD11C,0.1000*%
G36*
X421782Y940623D02*
X421773D01*
X421755D01*
X421718D01*
X421662Y940613D01*
X421607Y940604D01*
X421542D01*
X421385Y940576D01*
X421218Y940549D01*
X421052Y940493D01*
X420904Y940438D01*
X420839Y940401D01*
X420784Y940355D01*
X420775Y940345D01*
X420747Y940308D01*
X420701Y940253D01*
X420654Y940179D01*
X420599Y940077D01*
X420562Y939966D01*
X420525Y939827D01*
X420516Y939680D01*
Y939624D01*
X420525Y939569D01*
X420534Y939485D01*
X420553Y939402D01*
X420571Y939310D01*
X420608Y939217D01*
X420654Y939125D01*
X420664Y939116D01*
X420682Y939088D01*
X420719Y939051D01*
X420756Y938995D01*
X420821Y938949D01*
X420886Y938894D01*
X420960Y938847D01*
X421052Y938811D01*
X421061D01*
X421098Y938792D01*
X421163Y938783D01*
X421246Y938764D01*
X421357Y938746D01*
X421496Y938736D01*
X421662Y938718D01*
X421856D01*
X426267D01*
Y937867D01*
X421903D01*
X421893D01*
X421866D01*
X421829D01*
X421773D01*
X421699Y937877D01*
X421625D01*
X421450Y937895D01*
X421246Y937914D01*
X421033Y937951D01*
X420839Y938006D01*
X420654Y938071D01*
X420645D01*
X420636Y938080D01*
X420580Y938108D01*
X420506Y938154D01*
X420405Y938219D01*
X420303Y938311D01*
X420192Y938413D01*
X420081Y938542D01*
X419989Y938690D01*
X419979Y938709D01*
X419952Y938764D01*
X419915Y938847D01*
X419878Y938968D01*
X419832Y939116D01*
X419795Y939282D01*
X419767Y939467D01*
X419758Y939670D01*
Y939753D01*
X419767Y939809D01*
X419776Y939883D01*
X419785Y939957D01*
X419822Y940151D01*
X419878Y940355D01*
X419961Y940567D01*
X420016Y940678D01*
X420081Y940780D01*
X420155Y940872D01*
X420238Y940965D01*
X420248Y940974D01*
X420257Y940983D01*
X420294Y941002D01*
X420331Y941029D01*
X420377Y941066D01*
X420442Y941103D01*
X420516Y941140D01*
X420599Y941187D01*
X420691Y941224D01*
X420802Y941261D01*
X420913Y941298D01*
X421043Y941335D01*
X421181Y941353D01*
X421339Y941381D01*
X421496Y941390D01*
X421671D01*
X421782Y940623D01*
D02*
G37*
G36*
X420044Y936906D02*
X420127Y936897D01*
X420220Y936878D01*
X420312Y936860D01*
X420414Y936823D01*
X420423D01*
X420433Y936813D01*
X420488Y936795D01*
X420571Y936758D01*
X420682Y936702D01*
X420812Y936628D01*
X420960Y936536D01*
X421107Y936434D01*
X421265Y936305D01*
X421274D01*
X421283Y936286D01*
X421339Y936240D01*
X421422Y936157D01*
X421542Y936037D01*
X421681Y935898D01*
X421847Y935722D01*
X422032Y935510D01*
X422226Y935279D01*
X422235Y935269D01*
X422263Y935232D01*
X422309Y935177D01*
X422365Y935112D01*
X422439Y935029D01*
X422522Y934927D01*
X422614Y934826D01*
X422716Y934705D01*
X422938Y934474D01*
X423160Y934243D01*
X423271Y934132D01*
X423382Y934031D01*
X423484Y933938D01*
X423585Y933864D01*
X423595D01*
X423604Y933846D01*
X423632Y933827D01*
X423668Y933809D01*
X423770Y933744D01*
X423890Y933670D01*
X424038Y933605D01*
X424195Y933540D01*
X424371Y933503D01*
X424538Y933485D01*
X424547D01*
X424556D01*
X424612Y933494D01*
X424704Y933503D01*
X424806Y933531D01*
X424935Y933568D01*
X425065Y933633D01*
X425194Y933716D01*
X425323Y933827D01*
X425342Y933846D01*
X425379Y933892D01*
X425425Y933957D01*
X425490Y934058D01*
X425545Y934188D01*
X425601Y934336D01*
X425638Y934511D01*
X425647Y934705D01*
Y934761D01*
X425638Y934798D01*
X425629Y934909D01*
X425601Y935038D01*
X425564Y935177D01*
X425499Y935334D01*
X425416Y935482D01*
X425305Y935621D01*
X425286Y935639D01*
X425240Y935676D01*
X425166Y935732D01*
X425055Y935787D01*
X424926Y935852D01*
X424759Y935907D01*
X424575Y935944D01*
X424362Y935963D01*
X424445Y936767D01*
X424454D01*
X424482Y936758D01*
X424528D01*
X424593Y936749D01*
X424667Y936730D01*
X424750Y936712D01*
X424852Y936684D01*
X424954Y936656D01*
X425176Y936582D01*
X425397Y936471D01*
X425508Y936407D01*
X425619Y936323D01*
X425721Y936240D01*
X425813Y936148D01*
X425823Y936139D01*
X425832Y936120D01*
X425860Y936092D01*
X425887Y936046D01*
X425924Y935991D01*
X425961Y935926D01*
X426008Y935852D01*
X426054Y935759D01*
X426100Y935658D01*
X426146Y935547D01*
X426183Y935427D01*
X426220Y935297D01*
X426248Y935158D01*
X426276Y935011D01*
X426285Y934853D01*
X426294Y934687D01*
Y934594D01*
X426285Y934530D01*
X426276Y934456D01*
X426267Y934363D01*
X426248Y934262D01*
X426230Y934160D01*
X426165Y933920D01*
X426072Y933679D01*
X426017Y933559D01*
X425952Y933439D01*
X425869Y933328D01*
X425776Y933226D01*
X425767Y933217D01*
X425758Y933198D01*
X425721Y933180D01*
X425684Y933143D01*
X425638Y933097D01*
X425573Y933051D01*
X425508Y933004D01*
X425425Y932949D01*
X425249Y932856D01*
X425028Y932764D01*
X424917Y932727D01*
X424787Y932708D01*
X424658Y932690D01*
X424519Y932681D01*
X424501D01*
X424454D01*
X424380Y932690D01*
X424279Y932699D01*
X424168Y932718D01*
X424038Y932755D01*
X423900Y932792D01*
X423761Y932847D01*
X423742Y932856D01*
X423696Y932875D01*
X423622Y932912D01*
X423521Y932967D01*
X423410Y933041D01*
X423271Y933134D01*
X423132Y933245D01*
X422975Y933374D01*
X422957Y933392D01*
X422901Y933439D01*
X422855Y933485D01*
X422809Y933531D01*
X422753Y933587D01*
X422679Y933661D01*
X422605Y933735D01*
X422522Y933827D01*
X422430Y933920D01*
X422328Y934031D01*
X422226Y934151D01*
X422106Y934280D01*
X421986Y934428D01*
X421856Y934576D01*
X421847Y934585D01*
X421829Y934604D01*
X421801Y934641D01*
X421764Y934687D01*
X421708Y934742D01*
X421653Y934807D01*
X421533Y934955D01*
X421394Y935112D01*
X421255Y935260D01*
X421135Y935390D01*
X421089Y935445D01*
X421043Y935491D01*
X421033Y935500D01*
X421006Y935528D01*
X420969Y935565D01*
X420913Y935611D01*
X420849Y935658D01*
X420784Y935713D01*
X420627Y935824D01*
Y932671D01*
X419869D01*
Y936915D01*
X419878D01*
X419915D01*
X419970D01*
X420044Y936906D01*
D02*
G37*
D10*
X433640Y907890D02*
Y974890D01*
X409640Y907890D02*
X433640D01*
X409640D02*
Y974890D01*
X433640D01*
D11*
X448250Y766750D02*
G03*
X448250Y766750I-5000J0D01*
G01*
X575350Y575000D02*
X594650D01*
X575350Y545000D02*
X594650D01*
Y575000D01*
X575350Y545000D02*
Y575000D01*
X583650Y697950D02*
Y732050D01*
X536350Y697950D02*
Y732050D01*
Y697950D02*
X583650D01*
X536350Y732050D02*
X583650D01*
X434250Y744250D02*
Y775750D01*
X465750Y744250D02*
Y775750D01*
X434250D02*
X465750D01*
X434250Y744250D02*
X465750D01*
M02*
