G04*
G04 #@! TF.GenerationSoftware,Altium Limited,Altium Designer,26.3.0 (6)*
G04*
G04 Layer_Color=8388736*
%FSLAX44Y44*%
%MOMM*%
G71*
G04*
G04 #@! TF.SameCoordinates,0E51D8CF-22DB-4B3F-A48B-E46F4DA98146*
G04*
G04*
G04 #@! TF.FilePolarity,Negative*
G04*
G01*
G75*
%ADD36R,1.2940X0.8140*%
%ADD37R,1.0016X1.1016*%
%ADD38R,1.1516X0.3516*%
%ADD39R,0.4016X1.2516*%
%ADD40R,0.7016X1.2516*%
%ADD41R,5.1016X8.1016*%
%ADD42R,1.1016X1.0016*%
%ADD43C,5.1016*%
%ADD44R,0.6516X1.5016*%
%ADD45R,1.5016X0.6516*%
%ADD46R,1.3016X1.3016*%
%ADD47R,1.3016X1.3016*%
%ADD48R,1.4516X1.9016*%
%ADD49O,1.5016X0.6516*%
%ADD50R,1.5016X1.1016*%
%ADD51R,1.8016X3.6016*%
%ADD52R,5.1016X5.1016*%
%ADD53R,5.6016X0.9016*%
%ADD54O,1.1516X0.3516*%
%ADD55R,1.5416X1.6016*%
%ADD56C,0.7516*%
%ADD57O,1.1016X2.2016*%
G04:AMPARAMS|DCode=58|XSize=1.9016mm|YSize=1.1016mm|CornerRadius=0.3008mm|HoleSize=0mm|Usage=FLASHONLY|Rotation=90.000|XOffset=0mm|YOffset=0mm|HoleType=Round|Shape=RoundedRectangle|*
%AMROUNDEDRECTD58*
21,1,1.9016,0.5000,0,0,90.0*
21,1,1.3000,1.1016,0,0,90.0*
1,1,0.6016,0.2500,0.6500*
1,1,0.6016,0.2500,-0.6500*
1,1,0.6016,-0.2500,-0.6500*
1,1,0.6016,-0.2500,0.6500*
%
%ADD58ROUNDEDRECTD58*%
%ADD59C,1.7016*%
%ADD60C,1.3000*%
%ADD61C,2.6016*%
%ADD62R,1.3000X1.3000*%
D36*
X480600Y1328420D02*
D03*
X459200Y1319270D02*
D03*
Y1337570D02*
D03*
D37*
X483870Y1363980D02*
D03*
X466870D02*
D03*
X427460Y723730D02*
D03*
X410460D02*
D03*
X490220Y863600D02*
D03*
X480450Y1016000D02*
D03*
X569840Y1017270D02*
D03*
X552840D02*
D03*
X497450Y1016000D02*
D03*
X507220Y863600D02*
D03*
X370000Y620000D02*
D03*
X369960Y603250D02*
D03*
X370000Y540000D02*
D03*
Y520000D02*
D03*
X369960Y581660D02*
D03*
X386960D02*
D03*
X370000Y560000D02*
D03*
X387000D02*
D03*
Y620000D02*
D03*
X386960Y603250D02*
D03*
X387000Y520000D02*
D03*
Y540000D02*
D03*
X410460Y703730D02*
D03*
X427460D02*
D03*
X523500Y1365000D02*
D03*
X506500D02*
D03*
D38*
X435550Y760000D02*
D03*
X464450Y750000D02*
D03*
X435550D02*
D03*
X464450Y765000D02*
D03*
Y755000D02*
D03*
Y770000D02*
D03*
X435550Y765000D02*
D03*
Y755000D02*
D03*
X464450Y760000D02*
D03*
D39*
X495600Y573440D02*
D03*
X500600D02*
D03*
X505600D02*
D03*
X530600D02*
D03*
X525600D02*
D03*
X520600D02*
D03*
X510600D02*
D03*
X515600D02*
D03*
D40*
X537100D02*
D03*
X489100D02*
D03*
X545100D02*
D03*
X481100D02*
D03*
D41*
X565000Y645000D02*
D03*
X465000D02*
D03*
D42*
X191770Y612630D02*
D03*
X403860Y1167620D02*
D03*
X604520Y914010D02*
D03*
X405130Y1208160D02*
D03*
X558800Y753110D02*
D03*
X585470Y1099430D02*
D03*
X604520Y897010D02*
D03*
X605000Y847000D02*
D03*
X580000Y770000D02*
D03*
X449522Y949537D02*
D03*
X415000Y845000D02*
D03*
X449522Y932537D02*
D03*
X165100Y561830D02*
D03*
Y544830D02*
D03*
X605000Y830000D02*
D03*
X585470Y1082430D02*
D03*
X580000Y753000D02*
D03*
X558800Y770110D02*
D03*
X405130Y1225160D02*
D03*
X415000Y828000D02*
D03*
X403860Y1150620D02*
D03*
X191770Y595630D02*
D03*
D43*
X560000Y1455000D02*
D03*
D44*
X485000Y997000D02*
D03*
X565000D02*
D03*
X501000Y883000D02*
D03*
X533000D02*
D03*
X541000D02*
D03*
X557000D02*
D03*
X549000D02*
D03*
X557000Y997000D02*
D03*
X493000D02*
D03*
X509000Y883000D02*
D03*
X493000D02*
D03*
X501000Y997000D02*
D03*
X509000D02*
D03*
X517000D02*
D03*
X525000D02*
D03*
X533000D02*
D03*
X541000D02*
D03*
X549000D02*
D03*
X565000Y883000D02*
D03*
X525000D02*
D03*
X517000D02*
D03*
X485000D02*
D03*
D45*
X582000Y908000D02*
D03*
Y900000D02*
D03*
X468000Y948000D02*
D03*
X582000Y980000D02*
D03*
Y972000D02*
D03*
Y964000D02*
D03*
Y956000D02*
D03*
Y948000D02*
D03*
Y940000D02*
D03*
Y932000D02*
D03*
Y924000D02*
D03*
Y916000D02*
D03*
X468000Y900000D02*
D03*
Y908000D02*
D03*
Y916000D02*
D03*
Y924000D02*
D03*
Y932000D02*
D03*
Y940000D02*
D03*
Y956000D02*
D03*
Y964000D02*
D03*
Y972000D02*
D03*
D46*
X513420Y703580D02*
D03*
X492420D02*
D03*
D47*
X410000Y770500D02*
D03*
Y749500D02*
D03*
D48*
X585000Y573750D02*
D03*
Y546250D02*
D03*
D49*
X468000Y980000D02*
D03*
D50*
X491920Y755040D02*
D03*
Y774040D02*
D03*
X513920Y764540D02*
D03*
D51*
X580750Y715000D02*
D03*
X539250D02*
D03*
D52*
X460000Y1455000D02*
D03*
D53*
X553500Y826770D02*
D03*
X462500D02*
D03*
D54*
X435550Y770000D02*
D03*
D55*
X450000Y760000D02*
D03*
D56*
X484200Y562690D02*
D03*
X542000D02*
D03*
D57*
X556300Y567690D02*
D03*
X469900D02*
D03*
D58*
X556300Y525890D02*
D03*
X469900D02*
D03*
D59*
X453800Y1395000D02*
D03*
X479200D02*
D03*
X530000D02*
D03*
X428400D02*
D03*
X403000D02*
D03*
X504600D02*
D03*
X119200Y670000D02*
D03*
X170000D02*
D03*
X144600D02*
D03*
X93800D02*
D03*
D60*
X421640Y941390D02*
D03*
Y921390D02*
D03*
D61*
X555000Y1275000D02*
D03*
X555000Y1100000D02*
D03*
X15000Y595000D02*
D03*
X340000Y545000D02*
D03*
X215000Y595000D02*
D03*
X340000D02*
D03*
X215000Y545000D02*
D03*
X140000Y595000D02*
D03*
X15000Y545000D02*
D03*
X140000D02*
D03*
X430000Y1100000D02*
D03*
X555000Y1150000D02*
D03*
X430000D02*
D03*
X555000Y1225000D02*
D03*
X430000D02*
D03*
Y1275000D02*
D03*
D62*
X421640Y961390D02*
D03*
M02*
