G04*
G04 #@! TF.GenerationSoftware,Altium Limited,Altium Designer,26.3.0 (6)*
G04*
G04 Layer_Color=255*
%FSLAX44Y44*%
%MOMM*%
G71*
G04*
G04 #@! TF.SameCoordinates,0E51D8CF-22DB-4B3F-A48B-E46F4DA98146*
G04*
G04*
G04 #@! TF.FilePolarity,Positive*
G04*
G01*
G75*
%ADD60C,1.3000*%
%ADD62R,1.3000X1.3000*%
%ADD66C,0.6500*%
%ADD67O,1.0000X2.1000*%
G04:AMPARAMS|DCode=68|XSize=1.8mm|YSize=1mm|CornerRadius=0.25mm|HoleSize=0mm|Usage=FLASHONLY|Rotation=90.000|XOffset=0mm|YOffset=0mm|HoleType=Round|Shape=RoundedRectangle|*
%AMROUNDEDRECTD68*
21,1,1.8000,0.5000,0,0,90.0*
21,1,1.3000,1.0000,0,0,90.0*
1,1,0.5000,0.2500,0.6500*
1,1,0.5000,0.2500,-0.6500*
1,1,0.5000,-0.2500,-0.6500*
1,1,0.5000,-0.2500,0.6500*
%
%ADD68ROUNDEDRECTD68*%
%ADD69C,1.6000*%
%ADD70C,2.5000*%
D60*
X421640Y941390D02*
D03*
Y921390D02*
D03*
D62*
Y961390D02*
D03*
D66*
X484200Y562690D02*
D03*
X542000D02*
D03*
D67*
X556300Y567690D02*
D03*
X469900D02*
D03*
D68*
X556300Y525890D02*
D03*
X469900D02*
D03*
D69*
X453800Y1395000D02*
D03*
X479200D02*
D03*
X530000D02*
D03*
X428400D02*
D03*
X403000D02*
D03*
X504600D02*
D03*
X119200Y670000D02*
D03*
X170000D02*
D03*
X144600D02*
D03*
X93800D02*
D03*
D70*
X555000Y1275000D02*
D03*
X555000Y1100000D02*
D03*
X15000Y595000D02*
D03*
X340000Y545000D02*
D03*
X215000Y595000D02*
D03*
X340000D02*
D03*
X215000Y545000D02*
D03*
X140000Y595000D02*
D03*
X15000Y545000D02*
D03*
X140000D02*
D03*
X430000Y1100000D02*
D03*
X555000Y1150000D02*
D03*
X430000D02*
D03*
X555000Y1225000D02*
D03*
X430000D02*
D03*
Y1275000D02*
D03*
M02*
