M48
;Layer_Color=9474304
;FILE_FORMAT=4:4
METRIC,LZ
;TYPE=PLATED
T01F00S00C0.3000
T03F00S00C0.8000
T04F00S00C1.0200
T05F00S00C1.2500
;TYPE=NON_PLATED
T06F00S00C0.6500
%
T01
X00401369Y00539683
X0039878Y0060325
X00413Y00692
X0043815Y0070612
X0044831Y0069977
X0044069Y007239
X004445Y0073152
X0046101Y007239
X00473512Y0074
X0048006Y0074803
Y00762
X0046482Y0077597
X0051943
X0051308Y0069342
X0048006Y0069215
X0047371Y0070669
X0042545Y0073914
X0039878Y0077597
X005588Y0069342
X0057404Y005842
X0053721
X0048895
X0050038Y0055372
X0053086Y0053975
X00635Y00545
X00395Y0065
X00385Y0067
X0035306Y0073152
X0037211Y0077597
X0012065Y0073152
X0011938Y0062865
X00145Y0065
X00191095Y00628156
X0021463Y0087884
X0035306Y0085217
X0036576Y0084074
X003429Y0081915
X0038354Y0087249
X0039243Y0086645
X00390671Y00976115
X0038481Y0097028
X0037211Y0096139
X0036576Y0097663
X0036957Y0099314
X0038481Y0099949
X00391268Y00994324
X003429Y0099314
Y0097663
X0037592Y0103378
Y0118745
X0020955Y0105283
X0039878Y0103378
X00399408Y00995786
X00398924Y00976639
X004005Y00859859
X0045593Y0087884
X00490295Y00852149
X00525Y0086
X005334Y0087249
X00540026Y00866514
X0054864Y008636
X0055753Y0086995
X005588Y0079502
X0060198Y0080264
X0062865Y0081915
X00642056Y0082859
X0064135Y0086995
X0062865Y008636
X0061976Y0085217
X00634342Y0092
X0063373Y0093599
X0059436
Y0097155
X0061468Y0097028
X0060325Y0103378
X0057023
X00581959Y01053142
X005715Y0108077
X0050673
X0048006Y0103378
X0046736Y0114935
X00404495Y0118789
X0043942Y0079502
X0049276Y0080264
X0061468Y012065
X0063373Y0130175
X0059436Y0133731
X00547039Y01347377
X0052324Y0133731
X004445Y0130175
X0042799Y0143129
X0040386Y0141478
X0049403Y0145161
X0059436
X0039116Y0140716
X0036957Y0141478
X003429Y0143129
X0038481Y0137668
X0037592Y013462
T03
X0042164Y0092139
Y0094139
Y0096139
T04
X000938Y0067
X001192
X001446
X0017
X00403Y01395
X004284
X004538
X004792
X005046
X0053
T05
X00015Y00545
Y00595
X0014
Y00545
X00215
Y00595
X0034
Y00545
X0043Y011
Y0115
X00555
Y011
X00555Y01225
Y01275
X0043
Y01225
T06
X004842Y0056269
X00542
M30
