G04*
G04 #@! TF.GenerationSoftware,Altium Limited,Altium Designer,26.3.0 (6)*
G04*
G04 Layer_Color=128*
%FSLAX44Y44*%
%MOMM*%
G71*
G04*
G04 #@! TF.SameCoordinates,0E51D8CF-22DB-4B3F-A48B-E46F4DA98146*
G04*
G04*
G04 #@! TF.FilePolarity,Positive*
G04*
G01*
G75*
%ADD15C,0.1270*%
D15*
X480950Y562690D02*
X487450D01*
X484200Y559440D02*
Y565940D01*
X538750Y562690D02*
X545250D01*
X542000Y559440D02*
Y565940D01*
X553300Y567690D02*
X559300D01*
X556300Y564690D02*
Y570690D01*
X466900Y567690D02*
X472900D01*
X469900Y564690D02*
Y570690D01*
X553300Y525890D02*
X559300D01*
X556300Y522890D02*
Y528890D01*
X466900Y525890D02*
X472900D01*
X469900Y522890D02*
Y528890D01*
X448700Y1395000D02*
X458900D01*
X453800Y1389900D02*
Y1400100D01*
X474100Y1395000D02*
X484300D01*
X479200Y1389900D02*
Y1400100D01*
X524900Y1395000D02*
X535100D01*
X530000Y1389900D02*
Y1400100D01*
X423300Y1395000D02*
X433500D01*
X428400Y1389900D02*
Y1400100D01*
X397900Y1395000D02*
X408100D01*
X403000Y1389900D02*
Y1400100D01*
X499500Y1395000D02*
X509700D01*
X504600Y1389900D02*
Y1400100D01*
X417640Y941390D02*
X425640D01*
X421640Y937390D02*
Y945390D01*
X114100Y670000D02*
X124300D01*
X119200Y664900D02*
Y675100D01*
X164900Y670000D02*
X175100D01*
X170000Y664900D02*
Y675100D01*
X139500Y670000D02*
X149700D01*
X144600Y664900D02*
Y675100D01*
X548750Y1275000D02*
X561250D01*
X555000Y1268750D02*
Y1281250D01*
X548750Y1100000D02*
X561250D01*
X555000Y1093750D02*
Y1106250D01*
X88700Y670000D02*
X98900D01*
X93800Y664900D02*
Y675100D01*
X8750Y595000D02*
X21250D01*
X15000Y588750D02*
Y601250D01*
X333750Y545000D02*
X346250D01*
X340000Y538750D02*
Y551250D01*
X417640Y961390D02*
X425640D01*
X421640Y957390D02*
Y965390D01*
X417640Y921390D02*
X425640D01*
X421640Y917390D02*
Y925390D01*
X208750Y595000D02*
X221250D01*
X215000Y588750D02*
Y601250D01*
X333750Y595000D02*
X346250D01*
X340000Y588750D02*
Y601250D01*
X208750Y545000D02*
X221250D01*
X215000Y538750D02*
Y551250D01*
X133750Y595000D02*
X146250D01*
X140000Y588750D02*
Y601250D01*
X8750Y545000D02*
X21250D01*
X15000Y538750D02*
Y551250D01*
X133750Y545000D02*
X146250D01*
X140000Y538750D02*
Y551250D01*
X423750Y1100000D02*
X436250D01*
X430000Y1093750D02*
Y1106250D01*
X548750Y1150000D02*
X561250D01*
X555000Y1143750D02*
Y1156250D01*
X423750Y1150000D02*
X436250D01*
X430000Y1143750D02*
Y1156250D01*
X548750Y1225000D02*
X561250D01*
X555000Y1218750D02*
Y1231250D01*
X423750Y1225000D02*
X436250D01*
X430000Y1218750D02*
Y1231250D01*
X423750Y1275000D02*
X436250D01*
X430000Y1268750D02*
Y1281250D01*
X592860Y935990D02*
X595860D01*
X594360Y934490D02*
Y937490D01*
X632230Y935990D02*
X635230D01*
X633730Y934490D02*
Y937490D01*
X632230Y1301750D02*
X635230D01*
X633730Y1300250D02*
Y1303250D01*
X443000Y1301750D02*
X446000D01*
X444500Y1300250D02*
Y1303250D01*
X439190Y723900D02*
X442190D01*
X440690Y722400D02*
Y725400D01*
X459510Y723900D02*
X462510D01*
X461010Y722400D02*
Y725400D01*
X592860Y971550D02*
X595860D01*
X594360Y970050D02*
Y973050D01*
X189595Y628156D02*
X192595D01*
X191095Y626656D02*
Y629656D01*
X117880Y628650D02*
X120880D01*
X119380Y627150D02*
Y630150D01*
X119150Y731520D02*
X122150D01*
X120650Y730020D02*
Y733020D01*
X351560Y731520D02*
X354560D01*
X353060Y730020D02*
Y733020D01*
X443000Y731520D02*
X446000D01*
X444500Y730020D02*
Y733020D01*
X351560Y852170D02*
X354560D01*
X353060Y850670D02*
Y853670D01*
X397424Y976639D02*
X400424D01*
X398924Y975139D02*
Y978139D01*
X374420Y1187450D02*
X377420D01*
X375920Y1185950D02*
Y1188950D01*
X374420Y1346200D02*
X377420D01*
X375920Y1344700D02*
Y1347700D01*
X397907Y995786D02*
X400908D01*
X399408Y994286D02*
Y997286D01*
X397280Y1033780D02*
X400280D01*
X398780Y1032280D02*
Y1035280D01*
X402995Y1187890D02*
X405995D01*
X404495Y1186390D02*
Y1189390D01*
X446810Y699770D02*
X449810D01*
X448310Y698270D02*
Y701270D01*
X488795Y852149D02*
X491795D01*
X490295Y850649D02*
Y853649D01*
X511580Y693420D02*
X514580D01*
X513080Y691920D02*
Y694920D01*
X557300Y693420D02*
X560300D01*
X558800Y691920D02*
Y694920D01*
X618260Y852170D02*
X621260D01*
X619760Y850670D02*
Y853670D01*
X478560Y1033780D02*
X481560D01*
X480060Y1032280D02*
Y1035280D01*
X545539Y1347377D02*
X548539D01*
X547039Y1345876D02*
Y1348876D01*
X568730Y1033780D02*
X571730D01*
X570230Y1032280D02*
Y1035280D01*
X601750Y1033780D02*
X604750D01*
X603250Y1032280D02*
Y1035280D01*
X374420Y1033780D02*
X377420D01*
X375920Y1032280D02*
Y1035280D01*
X383500Y670000D02*
X386500D01*
X385000Y668500D02*
Y671500D01*
X383310Y970280D02*
X386310D01*
X384810Y968780D02*
Y971780D01*
X383310Y999490D02*
X386310D01*
X384810Y997990D02*
Y1000990D01*
X383310Y1376680D02*
X386310D01*
X384810Y1375180D02*
Y1378180D01*
X531900Y872490D02*
X534900D01*
X533400Y870990D02*
Y873990D01*
X382040Y872490D02*
X385040D01*
X383540Y870990D02*
Y873990D01*
X143500Y650000D02*
X146500D01*
X145000Y648500D02*
Y651500D01*
X393500Y650000D02*
X396500D01*
X395000Y648500D02*
Y651500D01*
X538526Y866514D02*
X541526D01*
X540026Y865014D02*
Y868014D01*
X389768Y994324D02*
X392768D01*
X391268Y992824D02*
Y995824D01*
X389171Y976115D02*
X392171D01*
X390671Y974615D02*
Y977615D01*
X389660Y1407160D02*
X392660D01*
X391160Y1405660D02*
Y1408660D01*
X390930Y866450D02*
X393930D01*
X392430Y864950D02*
Y867950D01*
X639850Y869950D02*
X642850D01*
X641350Y868450D02*
Y871450D01*
X364260Y976630D02*
X367260D01*
X365760Y975130D02*
Y978130D01*
X368070Y993140D02*
X371070D01*
X369570Y991640D02*
Y994640D01*
X368070Y1414780D02*
X371070D01*
X369570Y1413280D02*
Y1416280D01*
X640556Y828590D02*
X643556D01*
X642056Y827090D02*
Y830090D01*
X364260Y840740D02*
X367260D01*
X365760Y839240D02*
Y842240D01*
X556030Y869950D02*
X559030D01*
X557530Y868450D02*
Y871450D01*
X402360Y1414780D02*
X405360D01*
X403860Y1413280D02*
Y1416280D01*
X627150Y819150D02*
X630150D01*
X628650Y817650D02*
Y820650D01*
X627150Y863600D02*
X630150D01*
X628650Y862100D02*
Y865100D01*
X341400Y993140D02*
X344400D01*
X342900Y991640D02*
Y994640D01*
X341400Y976630D02*
X344400D01*
X342900Y975130D02*
Y978130D01*
X426490Y1431290D02*
X429490D01*
X427990Y1429790D02*
Y1432790D01*
X341400Y1431290D02*
X344400D01*
X342900Y1429790D02*
Y1432790D01*
X341400Y819150D02*
X344400D01*
X342900Y817650D02*
Y820650D01*
X547140Y863600D02*
X550140D01*
X548640Y862100D02*
Y865100D01*
X535710Y584200D02*
X538710D01*
X537210Y582700D02*
Y585700D01*
X487450Y584200D02*
X490450D01*
X488950Y582700D02*
Y585700D01*
X529360Y539750D02*
X532360D01*
X530860Y538250D02*
Y541250D01*
X498880Y553720D02*
X501880D01*
X500380Y552220D02*
Y555220D01*
X572540Y584200D02*
X575540D01*
X574040Y582700D02*
Y585700D01*
X399000Y859859D02*
X402000D01*
X400500Y858359D02*
Y861359D01*
X633500Y545000D02*
X636500D01*
X635000Y543500D02*
Y546500D01*
X632842Y920000D02*
X635842D01*
X634342Y918500D02*
Y921500D01*
X370610Y961390D02*
X373610D01*
X372110Y959890D02*
Y962890D01*
X370610Y775970D02*
X373610D01*
X372110Y774470D02*
Y777470D01*
X397280Y775970D02*
X400280D01*
X398780Y774470D02*
Y777470D01*
X463320Y775970D02*
X466320D01*
X464820Y774470D02*
Y777470D01*
X517930Y775970D02*
X520930D01*
X519430Y774470D02*
Y777470D01*
X397280Y603250D02*
X400280D01*
X398780Y601750D02*
Y604750D01*
X399869Y539683D02*
X402869D01*
X401369Y538183D02*
Y541183D01*
X521740Y1337310D02*
X524740D01*
X523240Y1335810D02*
Y1338810D01*
X592860Y1337310D02*
X595860D01*
X594360Y1335810D02*
Y1338810D01*
X465860Y1149350D02*
X468860D01*
X467360Y1147850D02*
Y1150850D01*
X613180Y1206500D02*
X616180D01*
X614680Y1205000D02*
Y1208000D01*
X600480Y802640D02*
X603480D01*
X601980Y801140D02*
Y804140D01*
X613180Y970280D02*
X616180D01*
X614680Y968780D02*
Y971780D01*
X491260Y802640D02*
X494260D01*
X492760Y801140D02*
Y804140D01*
X523500Y860000D02*
X526500D01*
X525000Y858500D02*
Y861500D01*
X580458Y1053142D02*
X583459D01*
X581959Y1051642D02*
Y1054642D01*
X570000Y1080770D02*
X573000D01*
X571500Y1079270D02*
Y1082270D01*
X505230Y1080770D02*
X508230D01*
X506730Y1079270D02*
Y1082270D01*
X478560Y692150D02*
X481560D01*
X480060Y690650D02*
Y693650D01*
X436650Y706120D02*
X439650D01*
X438150Y704620D02*
Y707620D01*
X472210Y706690D02*
X475210D01*
X473710Y705190D02*
Y708190D01*
X472012Y740000D02*
X475012D01*
X473512Y738500D02*
Y741500D01*
X478560Y762000D02*
X481560D01*
X480060Y760500D02*
Y763500D01*
X478560Y748030D02*
X481560D01*
X480060Y746530D02*
Y749530D01*
X437920Y795020D02*
X440920D01*
X439420Y793520D02*
Y796520D01*
X557300Y795020D02*
X560300D01*
X558800Y793520D02*
Y796520D01*
X423950Y739140D02*
X426950D01*
X425450Y737640D02*
Y740640D01*
X454430Y878840D02*
X457430D01*
X455930Y877340D02*
Y880340D01*
X208050Y1052830D02*
X211050D01*
X209550Y1051330D02*
Y1054330D01*
X411500Y692000D02*
X414500D01*
X413000Y690500D02*
Y693500D01*
X592860Y1451610D02*
X595860D01*
X594360Y1450110D02*
Y1453110D01*
X492530Y1451610D02*
X495530D01*
X494030Y1450110D02*
Y1453110D01*
X213130Y878840D02*
X216130D01*
X214630Y877340D02*
Y880340D01*
M02*
