G04*
G04 #@! TF.GenerationSoftware,Altium Limited,Altium Designer,26.3.0 (6)*
G04*
G04 Layer_Color=8421504*
%FSLAX44Y44*%
%MOMM*%
G71*
G04*
G04 #@! TF.SameCoordinates,0E51D8CF-22DB-4B3F-A48B-E46F4DA98146*
G04*
G04*
G04 #@! TF.FilePolarity,Positive*
G04*
G01*
G75*
%ADD18R,1.0900X0.6100*%
%ADD19R,1.0500X0.2500*%
%ADD20R,0.3000X1.1500*%
%ADD21R,0.6000X1.1500*%
%ADD22R,5.0000X8.0000*%
%ADD23C,5.0000*%
%ADD24R,0.5500X1.4000*%
%ADD25R,1.4000X0.5500*%
%ADD26R,1.2000X1.2000*%
%ADD27R,1.2000X1.2000*%
%ADD28R,1.3500X1.8000*%
%ADD29O,1.4000X0.5500*%
%ADD30R,1.4000X1.0000*%
%ADD31R,1.7000X3.5000*%
%ADD32R,5.0000X5.0000*%
%ADD33R,5.5000X0.8000*%
%ADD34O,1.0500X0.2500*%
%ADD35R,1.4400X1.5000*%
D18*
X480600Y1328420D02*
D03*
X459200Y1319270D02*
D03*
Y1337570D02*
D03*
D19*
X435550Y760000D02*
D03*
X464450Y750000D02*
D03*
X435550D02*
D03*
X464450Y765000D02*
D03*
Y755000D02*
D03*
Y770000D02*
D03*
X435550Y765000D02*
D03*
Y755000D02*
D03*
X464450Y760000D02*
D03*
D20*
X495600Y573440D02*
D03*
X500600D02*
D03*
X505600D02*
D03*
X530600D02*
D03*
X525600D02*
D03*
X520600D02*
D03*
X510600D02*
D03*
X515600D02*
D03*
D21*
X537100D02*
D03*
X489100D02*
D03*
X545100D02*
D03*
X481100D02*
D03*
D22*
X565000Y645000D02*
D03*
X465000D02*
D03*
D23*
X560000Y1455000D02*
D03*
D24*
X485000Y997000D02*
D03*
X565000D02*
D03*
X501000Y883000D02*
D03*
X533000D02*
D03*
X541000D02*
D03*
X557000D02*
D03*
X549000D02*
D03*
X557000Y997000D02*
D03*
X493000D02*
D03*
X509000Y883000D02*
D03*
X493000D02*
D03*
X501000Y997000D02*
D03*
X509000D02*
D03*
X517000D02*
D03*
X525000D02*
D03*
X533000D02*
D03*
X541000D02*
D03*
X549000D02*
D03*
X565000Y883000D02*
D03*
X525000D02*
D03*
X517000D02*
D03*
X485000D02*
D03*
D25*
X582000Y908000D02*
D03*
Y900000D02*
D03*
X468000Y948000D02*
D03*
X582000Y980000D02*
D03*
Y972000D02*
D03*
Y964000D02*
D03*
Y956000D02*
D03*
Y948000D02*
D03*
Y940000D02*
D03*
Y932000D02*
D03*
Y924000D02*
D03*
Y916000D02*
D03*
X468000Y900000D02*
D03*
Y908000D02*
D03*
Y916000D02*
D03*
Y924000D02*
D03*
Y932000D02*
D03*
Y940000D02*
D03*
Y956000D02*
D03*
Y964000D02*
D03*
Y972000D02*
D03*
D26*
X513420Y703580D02*
D03*
X492420D02*
D03*
D27*
X410000Y770500D02*
D03*
Y749500D02*
D03*
D28*
X585000Y573750D02*
D03*
Y546250D02*
D03*
D29*
X468000Y980000D02*
D03*
D30*
X491920Y755040D02*
D03*
Y774040D02*
D03*
X513920Y764540D02*
D03*
D31*
X580750Y715000D02*
D03*
X539250D02*
D03*
D32*
X460000Y1455000D02*
D03*
D33*
X553500Y826770D02*
D03*
X462500D02*
D03*
D34*
X435550Y770000D02*
D03*
D35*
X450000Y760000D02*
D03*
M02*
